<svg xmlns="http://www.w3.org/2000/svg" xmlns:xlink="http://www.w3.org/1999/xlink" viewBox="0 0 880 396" width="880" height="396"><g transform="translate(16,16) scale(1.0)"><defs><pattern id="b28tn" width="6" height="6" patternUnits="userSpaceOnUse" patternTransform="rotate(15)"><rect width="6" height="6" fill="#ffffff"/><circle cx="3" cy="3" r="1.1" fill="#15130f"/></pattern><clipPath id="b28cor"><polygon points="0,0 150,0 0,120"/></clipPath></defs>
  <rect width="432" height="224" fill="#ffffff"/>
  <g clip-path="url(#b28cor)"><rect width="432" height="224" fill="url(#b28tn)" opacity="0.8"/></g>
  <g transform="translate(20,16)">
    <polygon points="0,0 52,0 46,24 -5,24" fill="#e01b24"/>
    <polygon points="15.0,5.0 16.8,9.6 21.7,9.8 17.9,12.9 19.1,17.7 15.0,15.0 10.9,17.7 12.1,12.9 8.3,9.8 13.2,9.6" fill="#ffffff"/>
    <g><path d="M30.8 17L28.5 17L28.5 8.7Q28.3 9.0 27.9 9.1Q27.5 9.3 27.2 9.3L27.2 9.3L27.2 7.6Q27.5 7.5 27.8 7.4Q28.2 7.2 28.5 6.9Q28.9 6.7 29.0 6.3L29.0 6.3L30.8 6.3L30.8 17Z M35.2 17.1L35.2 17.1Q33.7 17.1 33.1 16.2Q32.4 15.4 32.4 13.8L32.4 13.8L32.4 13.1Q32.4 12.3 32.6 11.8Q32.8 11.3 33.3 11.0L33.3 11.0Q32.8 10.8 32.6 10.3Q32.4 9.8 32.4 9.1L32.4 9.1L32.4 8.9Q32.4 7.4 33.1 6.8Q33.9 6.1 35.2 6.1L35.2 6.1Q36.6 6.1 37.3 6.8Q38.0 7.5 38.0 8.9L38.0 8.9Q38.0 9.7 37.8 10.2Q37.6 10.8 37.1 11.0L37.1 11.0Q37.7 11.3 37.9 11.8Q38.0 12.3 38.0 13.1L38.0 13.1L38.0 13.8Q38.0 15.4 37.4 16.2Q36.7 17.1 35.2 17.1ZM35.2 10.1L35.2 10.1Q35.8 10.1 35.8 9.1L35.8 9.1Q35.8 8.7 35.7 8.4Q35.6 8.1 35.2 8.1L35.2 8.1Q34.9 8.1 34.8 8.4Q34.7 8.7 34.7 9.1L34.7 9.1Q34.7 10.1 35.2 10.1ZM35.2 15.0L35.2 15.0Q35.8 15.0 35.8 14.0L35.8 14.0L35.8 13.1Q35.8 12.6 35.7 12.3Q35.5 12.0 35.2 12.0L35.2 12.0Q34.9 12.0 34.8 12.3Q34.6 12.6 34.6 13.1L34.6 13.1L34.6 14.0Q34.6 15.0 35.2 15.0Z" fill="#ffffff"/></g>
  </g>
  <g transform="skewX(-12)" opacity="0.5"><path d="M361.4 27.4L361.4 27.4Q361.4 28.1 361.2 28.7Q361.0 29.3 360.5 29.7Q360.0 30.1 359.2 30.1L359.2 30.1Q358.0 30.1 357.5 29.2L357.5 29.2L357.4 30L356.6 30Q356.7 29.7 356.7 29.3Q356.8 28.9 356.8 28.6L356.8 28.6L356.8 23.1L356.0 23.1L356.0 22.4L357.6 22.4L357.6 26.1Q357.8 25.7 358.2 25.3Q358.6 25.0 359.3 25.0L359.3 25.0Q360.2 25.0 360.8 25.6Q361.4 26.3 361.4 27.4ZM360.6 27.5L360.6 27.5Q360.6 26.6 360.2 26.1Q359.8 25.7 359.1 25.7L359.1 25.7Q358.4 25.7 358.0 26.2Q357.6 26.7 357.6 27.2L357.6 27.2L357.6 28.0Q357.6 28.6 358.0 29.0Q358.4 29.4 359.1 29.4L359.1 29.4Q359.9 29.4 360.2 28.9Q360.6 28.3 360.6 27.5Z M362.4 25.9L362.6 24.7Q362.9 24.5 363.4 24.3Q363.9 24.2 364.4 24.2L364.4 24.2Q365.3 24.2 365.9 24.6Q366.4 25.1 366.4 25.9L366.4 25.9Q366.4 26.4 366.1 26.9Q365.8 27.4 365.1 27.6L365.1 27.6L365.1 27.6Q366.0 27.8 366.4 28.3Q366.7 28.8 366.7 29.4L366.7 29.4Q366.7 30.4 366.1 31.0Q365.5 31.6 364.4 31.6L364.4 31.6Q363.4 31.6 362.9 31.1Q362.3 30.6 362.2 30L362.2 30L362.8 29.8Q363.0 30.2 363.3 30.5Q363.7 30.9 364.4 30.9L364.4 30.9Q365.3 30.9 365.6 30.4Q365.9 30.0 365.9 29.4L365.9 29.4Q365.9 28.8 365.4 28.4Q365.0 28.0 363.8 28.0L363.8 28.0L363.8 27.4Q364.8 27.4 365.2 26.9Q365.6 26.5 365.6 26.0L365.6 26.0Q365.6 25.5 365.2 25.2Q364.9 24.9 364.3 24.9L364.3 24.9Q363.7 24.9 363.2 25.1L363.2 25.1L363.0 26.0L362.4 25.9Z M370.3 25.0L370.3 25.0Q370.9 25.0 371.2 25.3L371.2 25.3L371.4 26.5L370.7 26.6L370.6 25.7Q370.4 25.7 370.2 25.7L370.2 25.7Q369.7 25.7 369.5 26.0Q369.2 26.4 369.2 27.0L369.2 27.0L369.2 29.4L370.3 29.4L370.3 30L367.5 30L367.5 29.4L368.4 29.4L368.4 25.7L367.5 25.7L367.5 25.1L369.1 25.1L369.1 26.0Q369.3 25.6 369.6 25.3Q369.9 25.0 370.3 25.0Z M375.3 28.5L375.9 28.7Q375.7 30.1 374.3 30.1L374.3 30.1Q373.6 30.1 373.2 29.7Q372.8 29.3 372.8 28.6L372.8 28.6L372.8 25.7L372.0 25.7L372.0 25.1L372.8 25.1L372.8 23.5L373.6 23.5L373.6 25.1L375.5 25.1L375.5 25.7L373.6 25.7L373.6 28.5Q373.6 28.9 373.8 29.2Q374.0 29.4 374.4 29.4L374.4 29.4Q374.7 29.4 374.9 29.3Q375.2 29.1 375.3 28.5L375.3 28.5Z M379.9 29.3L379.9 30L376.5 30L376.5 29.3L377.8 29.3L377.8 25.0L376.5 25.0L376.5 24.3L378.6 24.3L378.6 29.3L379.9 29.3Z M386.4 29.4L386.4 30L383.9 30L383.9 29.4L384.7 29.4L384.7 27.1Q384.7 26.3 384.4 26.0Q384.1 25.7 383.6 25.7L383.6 25.7Q382.9 25.7 382.5 26.1Q382.1 26.5 382.1 27.1L382.1 27.1L382.1 29.4L383.0 29.4L383.0 30L380.5 30L380.5 29.4L381.3 29.4L381.3 25.7L380.5 25.7L380.5 25.1L382.1 25.1L382.1 26.0Q382.6 25.0 383.8 25.0L383.8 25.0Q384.5 25.0 385.0 25.4Q385.5 25.9 385.5 26.9L385.5 26.9L385.5 29.4L386.4 29.4Z M392.3 25.1L392.3 25.7L391.5 25.7L391.5 29.9Q391.5 31.1 390.9 31.8Q390.2 32.5 389.1 32.5L389.1 32.5Q388.3 32.5 387.7 32.1Q387.1 31.7 386.9 31.0L386.9 31.0L387.5 30.7Q387.7 31.3 388.2 31.5Q388.6 31.8 389.1 31.8L389.1 31.8Q389.8 31.8 390.3 31.3Q390.7 30.8 390.7 29.9L390.7 29.9L390.7 29.0Q390.5 29.4 390.1 29.7Q389.7 30.1 389.0 30.1L389.0 30.1Q388.1 30.1 387.5 29.4Q386.9 28.8 386.9 27.7L386.9 27.7Q386.9 26.7 387.4 25.9Q387.9 25.0 389.1 25.0L389.1 25.0Q390.2 25.0 390.7 25.9L390.7 25.9L390.7 25.1L392.3 25.1ZM390.7 27.9L390.7 27.9L390.7 27.0Q390.7 26.4 390.3 26.0Q389.9 25.7 389.3 25.7L389.3 25.7Q388.4 25.7 388.1 26.3Q387.7 26.9 387.7 27.6L387.7 27.6Q387.7 28.5 388.1 29.0Q388.5 29.4 389.1 29.4L389.1 29.4Q389.8 29.4 390.3 28.9Q390.7 28.4 390.7 27.9Z M395.2 22.4L396.0 22.4L393.6 30L392.8 30L395.2 22.4Z M403.2 29.3L403.2 30L400.6 30L400.6 29.3L401.5 29.3L399.6 26.7L398.4 26.7L398.4 29.3L399.2 29.3L399.2 30L396.7 30L396.7 29.3L397.6 29.3L397.6 23.6L396.7 23.6L396.7 22.9L399.2 22.9L399.2 23.6L398.4 23.6L398.4 26.0L399.6 26.0L401.4 23.5L400.5 23.5L400.5 22.8L403.1 22.8L403.1 23.5L402.3 23.5L400.2 26.3L402.4 29.3L403.2 29.3Z M408.5 27.5L408.5 27.5Q408.5 28.7 407.9 29.4Q407.2 30.1 406.1 30.1L406.1 30.1Q404.9 30.1 404.3 29.4Q403.7 28.7 403.7 27.6L403.7 27.6Q403.7 26.5 404.3 25.8Q404.9 25.0 406.1 25.0L406.1 25.0Q407.3 25.0 407.9 25.7Q408.5 26.5 408.5 27.5ZM407.7 27.5L407.7 27.5Q407.7 26.7 407.3 26.2Q406.9 25.7 406.1 25.7L406.1 25.7Q405.3 25.7 404.9 26.2Q404.5 26.7 404.5 27.5L404.5 27.5Q404.5 28.4 404.9 28.9Q405.3 29.4 406.1 29.4L406.1 29.4Q406.9 29.4 407.3 28.9Q407.7 28.4 407.7 27.5Z M410.9 23.8L410.1 23.8L410.1 22.8L410.9 22.8L410.9 23.8ZM411.8 29.4L411.8 30L409.3 30L409.3 29.4L410.2 29.4L410.2 25.7L409.3 25.7L409.3 25.1L410.9 25.1L410.9 29.4L411.8 29.4Z" fill="#15130f"/></g>
  <g transform="skewX(-7)"><path d="M30.4 78L23.5 78L23.5 43.6L30.3 43.6L30.3 57.4L33.5 43.6L40.4 43.6L36.6 59.4L41.2 78L34.1 78L30.4 61.4L30.4 78Z M50.8 78.3L50.8 78.3Q42.1 78.3 42.1 69.2L42.1 69.2L42.1 57.5Q42.1 53.3 44.4 50.9Q46.7 48.4 50.8 48.4L50.8 48.4Q54.9 48.4 57.3 50.9Q59.6 53.3 59.6 57.5L59.6 57.5L59.6 69.2Q59.6 78.3 50.8 78.3ZM50.8 72.9L50.8 72.9Q51.7 72.9 52.1 72.3Q52.4 71.7 52.4 70.7L52.4 70.7L52.4 56.4Q52.4 53.8 50.8 53.8L50.8 53.8Q49.2 53.8 49.2 56.4L49.2 56.4L49.2 70.7Q49.2 71.7 49.5 72.3Q49.9 72.9 50.8 72.9Z M69.1 46.9L62.1 46.9L62.1 41.1L69.1 41.1L69.1 46.9ZM69.1 78L62.1 78L62.1 48.7L69.1 48.7L69.1 78Z" fill="#15130f"/></g>
  <line x1="24" y1="90" x2="72.5" y2="90" stroke="#e01b24" stroke-width="5"/>
  <g transform="translate(20,104)"><rect width="392" height="66" rx="3" fill="#ffffff" stroke="#15130f" stroke-width="2.5"/>
    <g><path d="M26.2 18.2L26.5 21.2L25.0 21.3L24.7 19.8L23.3 19.8L23.3 25.5L24.7 25.5L24.7 27L20.1 27L20.1 25.5L21.5 25.5L21.5 19.8L20.1 19.8L19.8 21.3L18.3 21.2L18.6 18.2L26.2 18.2Z M34.5 25.7L34.5 27L31.1 27L31.1 25.7L31.9 25.7L31.9 23.6Q31.9 22.8 31.6 22.5Q31.4 22.1 30.8 22.1L30.8 22.1Q30.2 22.1 29.9 22.5Q29.6 22.8 29.6 23.4L29.6 23.4L29.6 25.7L30.4 25.7L30.4 27L27.0 27L27.0 25.7L27.8 25.7L27.8 19.0L27.0 19.0L27.0 17.7L29.6 17.7L29.6 21.8Q30.2 20.8 31.5 20.8L31.5 20.8Q32.4 20.8 33.0 21.3Q33.6 21.8 33.6 22.9L33.6 22.9L33.6 25.7L34.5 25.7Z M39.4 24.8L40.9 25.1Q40.8 25.9 40.1 26.5Q39.4 27.1 38.0 27.1L38.0 27.1Q36.7 27.1 35.8 26.4Q34.9 25.6 34.9 24.1L34.9 24.1Q34.9 22.7 35.7 21.7Q36.5 20.8 38.0 20.8L38.0 20.8Q39.2 20.8 40.0 21.5Q40.8 22.2 40.8 23.4L40.8 23.4Q40.8 23.9 40.7 24.3L40.7 24.3L36.7 24.3Q36.9 25.8 38.2 25.8L38.2 25.8Q38.9 25.8 39.1 25.4Q39.4 25.1 39.4 24.8L39.4 24.8ZM36.8 23.3L39.0 23.3Q39.1 22.8 38.8 22.4Q38.6 22.0 38.0 22.0L38.0 22.0Q37.4 22.0 37.1 22.4Q36.8 22.7 36.8 23.3L36.8 23.3Z  M47.3 25.7L47.3 27L43.9 27L43.9 25.7L44.7 25.7L44.7 19.0L43.9 19.0L43.9 17.7L46.5 17.7L46.5 25.7L47.3 25.7Z M54.3 24.0L54.3 24.0Q54.3 25.4 53.4 26.3Q52.4 27.1 51.0 27.1L51.0 27.1Q49.6 27.1 48.7 26.3Q47.8 25.5 47.8 24.0L47.8 24.0Q47.8 22.7 48.6 21.7Q49.4 20.8 51.1 20.8L51.1 20.8Q52.7 20.8 53.5 21.7Q54.3 22.7 54.3 24.0ZM52.5 23.9L52.5 23.9Q52.5 23.0 52.1 22.5Q51.7 22.1 51.0 22.1L51.0 22.1Q50.4 22.1 50.0 22.6Q49.6 23.1 49.6 23.9L49.6 23.9Q49.6 24.7 49.9 25.3Q50.3 25.8 51.0 25.8L51.0 25.8Q51.7 25.8 52.1 25.3Q52.5 24.8 52.5 23.9Z M64.7 20.9L64.7 22.2L64.2 22.2L62.5 27L61.2 27L59.7 23.4L59.6 23.4L58.1 27L56.9 27L55.2 22.2L54.7 22.2L54.7 20.9L57.9 20.9L57.9 22.2L57.1 22.2L57.8 24.6L57.9 24.6L59.3 20.9L60.4 20.9L62.0 24.5L62.1 24.5L62.6 22.2L61.8 22.2L61.8 20.9L64.7 20.9Z  M72.1 24.5L73.5 24.7Q73.4 25.6 72.8 26.4Q72.2 27.1 70.7 27.1L70.7 27.1Q69.4 27.1 68.5 26.4Q67.7 25.6 67.7 24.1L67.7 24.1Q67.7 22.4 68.6 21.6Q69.5 20.8 70.8 20.8L70.8 20.8Q71.3 20.8 71.9 20.9Q72.5 21.0 73.0 21.3L73.0 21.3L73.3 23.2L71.9 23.3L71.7 22.3Q71.2 22.2 70.8 22.2L70.8 22.2Q70.2 22.2 69.9 22.6Q69.5 23.0 69.5 24.0L69.5 24.0Q69.5 25.8 70.9 25.8L70.9 25.8Q71.9 25.8 72.1 24.5L72.1 24.5Z M80.5 24.0L80.5 24.0Q80.5 25.4 79.6 26.3Q78.6 27.1 77.2 27.1L77.2 27.1Q75.8 27.1 74.9 26.3Q74.0 25.5 74.0 24.0L74.0 24.0Q74.0 22.7 74.8 21.7Q75.6 20.8 77.3 20.8L77.3 20.8Q78.9 20.8 79.7 21.7Q80.5 22.7 80.5 24.0ZM78.7 23.9L78.7 23.9Q78.7 23.0 78.3 22.5Q77.9 22.1 77.2 22.1L77.2 22.1Q76.6 22.1 76.2 22.6Q75.8 23.1 75.8 23.9L75.8 23.9Q75.8 24.7 76.2 25.3Q76.5 25.8 77.2 25.8L77.2 25.8Q77.9 25.8 78.3 25.3Q78.7 24.8 78.7 23.9Z M85.0 20.8L85.0 20.8Q85.3 20.8 85.6 20.9Q85.9 21.0 86.2 21.2L86.2 21.2L86.5 23.3L85.2 23.4L84.9 22.4Q84.7 22.2 84.5 22.2L84.5 22.2Q84.2 22.2 84.0 22.5Q83.7 22.7 83.7 23.2L83.7 23.2L83.7 25.7L84.8 25.7L84.8 27L81.2 27L81.2 25.7L82.0 25.7L82.0 22.2L81.1 22.2L81.1 20.9L83.6 20.9L83.6 22.1Q83.7 21.5 84.1 21.2Q84.4 20.8 85.0 20.8Z M91.0 24.7L92.2 25.1Q92.1 26.2 91.5 26.6Q90.9 27.1 90.0 27.1L90.0 27.1Q88.9 27.1 88.3 26.6Q87.7 26.1 87.7 25.2L87.7 25.2L87.7 22.2L86.8 22.2L86.8 20.9L87.7 20.9L87.7 19.1L89.4 19.1L89.4 20.9L91.6 20.9L91.6 22.2L89.4 22.2L89.4 24.9Q89.4 25.7 90.2 25.7L90.2 25.7Q90.3 25.7 90.6 25.5Q90.9 25.4 91.0 24.7L91.0 24.7Z M95.0 19.8L93.3 19.8L93.3 18.0L95.0 18.0L95.0 19.8ZM95.9 25.7L95.9 27L92.5 27L92.5 25.7L93.4 25.7L93.4 22.2L92.5 22.2L92.5 20.9L95.1 20.9L95.1 25.7L95.9 25.7Z M102.0 25.1L102.0 25.1Q102.0 26.1 101.2 26.6Q100.4 27.1 99.1 27.1L99.1 27.1Q98.5 27.1 97.8 27.0Q97.1 26.9 96.5 26.5L96.5 26.5L96.8 24.8L98.1 25.0L98.1 25.7Q98.4 25.8 98.6 25.8Q98.9 25.9 99.0 25.9L99.0 25.9Q99.5 25.9 99.9 25.7Q100.3 25.5 100.3 25.2L100.3 25.2Q100.3 24.8 99.7 24.7Q99.2 24.6 98.4 24.5Q97.7 24.3 97.2 24.0Q96.6 23.6 96.6 22.7L96.6 22.7Q96.6 21.6 97.5 21.2Q98.3 20.8 99.3 20.8L99.3 20.8Q100.5 20.8 101.6 21.3L101.6 21.3L101.7 22.9L100.4 23.0L100.2 22.2Q99.8 22.0 99.3 22.0L99.3 22.0Q98.9 22.0 98.7 22.2Q98.5 22.3 98.5 22.6L98.5 22.6Q98.5 23.0 99.0 23.1Q99.5 23.3 100.2 23.4Q101.0 23.5 101.5 23.9Q102.0 24.3 102.0 25.1Z M109.1 24.0L109.1 24.0Q109.1 25.4 108.2 26.3Q107.2 27.1 105.8 27.1L105.8 27.1Q104.4 27.1 103.5 26.3Q102.6 25.5 102.6 24.0L102.6 24.0Q102.6 22.7 103.4 21.7Q104.2 20.8 105.9 20.8L105.9 20.8Q107.5 20.8 108.3 21.7Q109.1 22.7 109.1 24.0ZM107.3 23.9L107.3 23.9Q107.3 23.0 106.9 22.5Q106.5 22.1 105.9 22.1L105.9 22.1Q105.2 22.1 104.8 22.6Q104.4 23.1 104.4 23.9L104.4 23.9Q104.4 24.7 104.8 25.3Q105.1 25.8 105.8 25.8L105.8 25.8Q106.5 25.8 106.9 25.3Q107.3 24.8 107.3 23.9Z M113.0 25.7L113.0 27L109.7 27L109.7 25.7L110.5 25.7L110.5 19.0L109.6 19.0L109.6 17.7L112.2 17.7L112.2 25.7L113.0 25.7Z  M121.7 25.1L121.7 25.1Q121.7 26.1 120.8 26.6Q120.0 27.1 118.8 27.1L118.8 27.1Q118.1 27.1 117.4 27.0Q116.8 26.9 116.2 26.5L116.2 26.5L116.4 24.8L117.8 25.0L117.8 25.7Q118.0 25.8 118.3 25.8Q118.5 25.9 118.7 25.9L118.7 25.9Q119.2 25.9 119.5 25.7Q119.9 25.5 119.9 25.2L119.9 25.2Q119.9 24.8 119.3 24.7Q118.8 24.6 118.1 24.5Q117.3 24.3 116.8 24.0Q116.2 23.6 116.2 22.7L116.2 22.7Q116.2 21.6 117.1 21.2Q118.0 20.8 118.9 20.8L118.9 20.8Q120.1 20.8 121.2 21.3L121.2 21.3L121.3 22.9L120.0 23.0L119.9 22.2Q119.4 22.0 118.9 22.0L118.9 22.0Q118.6 22.0 118.3 22.2Q118.1 22.3 118.1 22.6L118.1 22.6Q118.1 23.0 118.6 23.1Q119.2 23.3 119.9 23.4Q120.6 23.5 121.1 23.9Q121.7 24.3 121.7 25.1Z M129.6 25.7L129.6 27L126.3 27L126.3 25.7L127.1 25.7L127.1 23.6Q127.1 22.8 126.8 22.5Q126.5 22.1 126.0 22.1L126.0 22.1Q125.4 22.1 125.1 22.5Q124.8 22.8 124.7 23.4L124.7 23.4L124.7 25.7L125.6 25.7L125.6 27L122.2 27L122.2 25.7L123.0 25.7L123.0 19.0L122.2 19.0L122.2 17.7L124.7 17.7L124.7 21.8Q125.4 20.8 126.7 20.8L126.7 20.8Q127.6 20.8 128.2 21.3Q128.8 21.8 128.8 22.9L128.8 22.9L128.8 25.7L129.6 25.7Z M134.6 24.8L136.1 25.1Q136.0 25.9 135.3 26.5Q134.5 27.1 133.2 27.1L133.2 27.1Q131.9 27.1 131.0 26.4Q130.1 25.6 130.1 24.1L130.1 24.1Q130.1 22.7 130.9 21.7Q131.7 20.8 133.2 20.8L133.2 20.8Q134.4 20.8 135.2 21.5Q136.0 22.2 136.0 23.4L136.0 23.4Q136.0 23.9 135.9 24.3L135.9 24.3L131.9 24.3Q132.1 25.8 133.4 25.8L133.4 25.8Q134.1 25.8 134.3 25.4Q134.6 25.1 134.6 24.8L134.6 24.8ZM131.9 23.3L134.2 23.3Q134.3 22.8 134.0 22.4Q133.8 22.0 133.2 22.0L133.2 22.0Q132.6 22.0 132.3 22.4Q132.0 22.7 131.9 23.3L131.9 23.3Z M139.9 25.7L139.9 27L136.6 27L136.6 25.7L137.4 25.7L137.4 19.0L136.5 19.0L136.5 17.7L139.1 17.7L139.1 25.7L139.9 25.7Z M143.8 25.7L143.8 27L140.4 27L140.4 25.7L141.2 25.7L141.2 19.0L140.4 19.0L140.4 17.7L143.0 17.7L143.0 25.7L143.8 25.7Z  M154.2 25.7L154.2 27L150.9 27L150.9 25.7L151.7 25.7L151.7 23.6Q151.7 22.8 151.4 22.5Q151.1 22.1 150.6 22.1L150.6 22.1Q150.0 22.1 149.7 22.5Q149.4 22.8 149.3 23.4L149.3 23.4L149.3 25.7L150.1 25.7L150.1 27L146.8 27L146.8 25.7L147.6 25.7L147.6 19.0L146.8 19.0L146.8 17.7L149.3 17.7L149.3 21.8Q149.9 20.8 151.3 20.8L151.3 20.8Q152.1 20.8 152.8 21.3Q153.4 21.8 153.4 22.9L153.4 22.9L153.4 25.7L154.2 25.7Z M155.1 22.9L155.3 21.3Q156.1 21.0 156.7 20.9Q157.2 20.8 157.9 20.8L157.9 20.8Q158.9 20.8 159.6 21.3Q160.3 21.8 160.3 22.9L160.3 22.9L160.3 25.5Q160.3 26.0 160.8 26.0L160.8 26.0Q160.9 26.0 161.0 25.9L161.0 25.9L161.0 26.9Q160.5 27.1 159.9 27.1L159.9 27.1Q158.7 27.1 158.6 25.9L158.6 25.9L158.6 25.9Q158.3 26.4 157.9 26.8Q157.4 27.1 156.6 27.1L156.6 27.1Q156.0 27.1 155.4 26.7Q154.8 26.4 154.8 25.4L154.8 25.4Q154.8 24.3 155.7 23.9Q156.6 23.5 157.6 23.5L157.6 23.5Q158.2 23.5 158.6 23.6L158.6 23.6L158.6 23.4Q158.6 22.9 158.5 22.5Q158.3 22.0 157.6 22.0L157.6 22.0Q157.3 22.0 157.1 22.1Q156.9 22.1 156.7 22.2L156.7 22.2L156.4 23.1L155.1 22.9ZM158.6 24.5L158.6 24.5L158.6 24.4Q158.4 24.4 158.2 24.4Q157.9 24.4 157.7 24.4L157.7 24.4Q157.3 24.4 156.9 24.5Q156.6 24.7 156.6 25.2L156.6 25.2Q156.6 25.5 156.7 25.7Q156.9 25.9 157.3 25.9L157.3 25.9Q157.7 25.9 158.1 25.6Q158.5 25.2 158.6 24.5Z M169.1 25.7L169.1 27L165.7 27L165.7 25.7L166.5 25.7L166.5 23.6Q166.5 22.8 166.3 22.5Q166.0 22.1 165.5 22.1L165.5 22.1Q164.9 22.1 164.5 22.5Q164.2 22.9 164.2 23.5L164.2 23.5L164.2 25.7L165.0 25.7L165.0 27L161.6 27L161.6 25.7L162.4 25.7L162.4 22.2L161.6 22.2L161.6 20.9L164.2 20.9L164.2 21.8Q164.8 20.8 166.1 20.8L166.1 20.8Q167.0 20.8 167.6 21.3Q168.3 21.8 168.3 22.9L168.3 22.9L168.3 25.7L169.1 25.7Z M176.7 25.7L176.7 27L174.2 27L174.2 25.9Q173.9 26.4 173.4 26.8Q172.9 27.1 172.1 27.1L172.1 27.1Q170.9 27.1 170.2 26.3Q169.5 25.5 169.5 24.1L169.5 24.1Q169.5 22.7 170.2 21.7Q170.9 20.8 172.3 20.8L172.3 20.8Q173.0 20.8 173.5 21.1Q173.9 21.4 174.2 21.8L174.2 21.8L174.2 19.0L173.0 19.0L173.0 17.7L175.9 17.7L175.9 25.7L176.7 25.7ZM174.2 23.9L174.2 23.9L174.2 23.8Q174.2 23.0 173.8 22.6Q173.4 22.2 172.8 22.2L172.8 22.2Q172.2 22.2 171.8 22.6Q171.3 23.0 171.3 24.0L171.3 24.0Q171.3 24.8 171.8 25.3Q172.2 25.8 172.7 25.8L172.7 25.8Q173.4 25.8 173.8 25.2Q174.2 24.6 174.2 23.9Z M180.5 25.7L180.5 27L177.2 27L177.2 25.7L178.0 25.7L178.0 19.0L177.1 19.0L177.1 17.7L179.7 17.7L179.7 25.7L180.5 25.7Z M185.6 24.8L187.0 25.1Q187.0 25.9 186.2 26.5Q185.5 27.1 184.2 27.1L184.2 27.1Q182.8 27.1 182.0 26.4Q181.1 25.6 181.1 24.1L181.1 24.1Q181.1 22.7 181.9 21.7Q182.7 20.8 184.1 20.8L184.1 20.8Q185.4 20.8 186.2 21.5Q187.0 22.2 187.0 23.4L187.0 23.4Q187.0 23.9 186.9 24.3L186.9 24.3L182.9 24.3Q183.0 25.8 184.3 25.8L184.3 25.8Q185.0 25.8 185.3 25.4Q185.5 25.1 185.6 24.8L185.6 24.8ZM182.9 23.3L185.2 23.3Q185.2 22.8 185.0 22.4Q184.7 22.0 184.1 22.0L184.1 22.0Q183.6 22.0 183.3 22.4Q183.0 22.7 182.9 23.3L182.9 23.3Z M191.5 20.8L191.5 20.8Q191.8 20.8 192.1 20.9Q192.4 21.0 192.7 21.2L192.7 21.2L193.0 23.3L191.7 23.4L191.5 22.4Q191.2 22.2 191.0 22.2L191.0 22.2Q190.7 22.2 190.5 22.5Q190.2 22.7 190.2 23.2L190.2 23.2L190.2 25.7L191.3 25.7L191.3 27L187.7 27L187.7 25.7L188.5 25.7L188.5 22.2L187.6 22.2L187.6 20.9L190.1 20.9L190.1 22.1Q190.3 21.5 190.6 21.2Q190.9 20.8 191.5 20.8Z" fill="#15130f"/></g>
  </g>
  <g transform="translate(0,198)"><circle cx="28" cy="0" r="4" fill="#3572A5"/><g><path d="M43.5-1.4L43.5-1.4Q43.5-0.2 42.8 0.5Q42.0 1.1 40.9 1.1L40.9 1.1L39.4 1.1L39.4 3.2L40.7 3.2L40.7 4L37.5 4L37.5 3.2L38.5 3.2L38.5-3.0L37.5-3.0L37.5-3.8L40.8-3.8Q42.3-3.8 42.9-3.1Q43.5-2.4 43.5-1.4ZM42.6-1.4L42.6-1.4Q42.6-2.1 42.1-2.6Q41.7-3.0 40.7-3.0L40.7-3.0L39.4-3.0L39.4 0.3L40.8 0.3Q42.6 0.3 42.6-1.4Z M49.9-1.3L49.9-0.7L49.3-0.7L47.4 4L46.7 5.9L47.6 5.9L47.6 6.6L44.9 6.6L44.9 5.9L45.9 5.9L46.6 4.0L44.6-0.7L44.0-0.7L44.0-1.3L46.5-1.3L46.5-0.7L45.5-0.7L47.0 2.9L47.1 2.9L48.4-0.7L47.6-0.7L47.6-1.3L49.9-1.3Z M53.8 2.4L54.4 2.6Q54.2 4.1 52.7 4.1L52.7 4.1Q51.9 4.1 51.5 3.7Q51.1 3.2 51.1 2.4L51.1 2.4L51.1-0.7L50.2-0.7L50.2-1.3L51.1-1.3L51.1-3.1L51.9-3.1L51.9-1.3L54.0-1.3L54.0-0.7L51.9-0.7L51.9 2.3Q51.9 2.8 52.1 3.1Q52.3 3.4 52.8 3.4L52.8 3.4Q53.1 3.4 53.4 3.2Q53.7 3.0 53.8 2.4L53.8 2.4Z M61.1 3.3L61.1 4L58.4 4L58.4 3.3L59.3 3.3L59.3 0.8Q59.3-0.0 59.0-0.4Q58.6-0.7 58.0-0.7L58.0-0.7Q57.4-0.7 56.9-0.3Q56.5 0.2 56.5 0.8L56.5 0.8L56.5 3.3L57.4 3.3L57.4 4L54.7 4L54.7 3.3L55.6 3.3L55.6-3.6L54.7-3.6L54.7-4.3L56.5-4.3L56.5-0.4Q57.0-1.4 58.3-1.4L58.3-1.4Q59.1-1.4 59.6-1.0Q60.2-0.5 60.2 0.6L60.2 0.6L60.2 3.3L61.1 3.3Z M66.9 1.3L66.9 1.3Q66.9 2.5 66.2 3.3Q65.5 4.1 64.2 4.1L64.2 4.1Q63.0 4.1 62.3 3.4Q61.6 2.6 61.6 1.4L61.6 1.4Q61.6 0.2 62.3-0.6Q63.0-1.5 64.3-1.5L64.3-1.5Q65.6-1.5 66.2-0.6Q66.9 0.2 66.9 1.3ZM66.0 1.3L66.0 1.3Q66.0 0.4 65.6-0.2Q65.1-0.7 64.3-0.7L64.3-0.7Q63.4-0.7 63.0-0.2Q62.5 0.4 62.5 1.3L62.5 1.3Q62.5 2.2 63.0 2.8Q63.4 3.4 64.3 3.4L64.3 3.4Q65.1 3.4 65.6 2.8Q66.0 2.2 66.0 1.3Z M74.1 3.3L74.1 4L71.4 4L71.4 3.3L72.3 3.3L72.3 0.8Q72.3-0.0 72.0-0.4Q71.6-0.7 71.1-0.7L71.1-0.7Q70.4-0.7 69.9-0.3Q69.5 0.2 69.5 0.8L69.5 0.8L69.5 3.3L70.4 3.3L70.4 4L67.7 4L67.7 3.3L68.6 3.3L68.6-0.7L67.7-0.7L67.7-1.3L69.5-1.3L69.5-0.4Q70.1-1.4 71.4-1.4L71.4-1.4Q72.1-1.4 72.7-1.0Q73.2-0.5 73.2 0.6L73.2 0.6L73.2 3.3L74.1 3.3Z" fill="#15130f"/></g></g>
  <rect x="2.5" y="2.5" width="427" height="219" fill="none" stroke="#15130f" stroke-width="5"/></g><g transform="translate(16,256) scale(1.0)"><defs><pattern id="b34tf" width="6" height="6" patternUnits="userSpaceOnUse" patternTransform="rotate(15)"><rect width="6" height="6" fill="#15130f"/><circle cx="3" cy="3" r="1.1" fill="#ffffff"/></pattern></defs>
  <rect width="880" height="120" fill="#15130f"/>
  <rect width="880" height="120" fill="url(#b34tf)" opacity="0.3"/>
  <g stroke="#ffffff" opacity="0.5">
    <line x1="440" y1="150" x2="120" y2="-10" stroke-width="1"/>
    <line x1="440" y1="150" x2="260" y2="-10" stroke-width="2"/>
    <line x1="440" y1="150" x2="440" y2="-10" stroke-width="1"/>
    <line x1="440" y1="150" x2="620" y2="-10" stroke-width="2"/>
    <line x1="440" y1="150" x2="760" y2="-10" stroke-width="1"/></g>
  <g transform="skewX(-8) skewX(-12)"><path d="M87.6 74L80.9 74L84.2 39.6L95.9 39.6L99.2 74L92.7 74L92.2 68.5L88.0 68.5L87.6 74ZM89.8 45.5L88.5 63.0L91.6 63.0L90.1 45.5L89.8 45.5Z M108.0 74L101.3 74L101.3 39.6L108.3 39.6L111.5 56.1L111.5 39.6L118.1 39.6L118.1 74L111.4 74L108.0 56.8L108.0 74Z M130.4 74L121.2 74L121.2 39.6L130.6 39.6Q134.4 39.6 136.2 41.7Q138.1 43.7 138.1 47.7L138.1 47.7L138.1 63.8Q138.1 68.7 136.4 71.3Q134.7 74 130.4 74L130.4 74ZM128.1 45.6L128.1 67.9L129.3 67.9Q131.2 67.9 131.2 66.1L131.2 66.1L131.2 48.4Q131.2 46.6 130.7 46.1Q130.3 45.6 128.9 45.6L128.9 45.6L128.1 45.6Z  M156.5 74L150.3 74L150.3 39.6L160.8 39.6L163.7 60.6L166.5 39.6L177.1 39.6L177.1 74L170.8 74L170.8 49.2L166.9 74L160.7 74L156.5 49.2L156.5 74Z M188.3 74.3L188.3 74.3Q184.2 74.3 182.0 71.8Q179.9 69.3 179.9 64.6L179.9 64.6L179.9 48.3Q179.9 43.9 182.0 41.6Q184.2 39.3 188.3 39.3L188.3 39.3Q192.5 39.3 194.7 41.6Q196.8 43.9 196.8 48.3L196.8 48.3L196.8 64.6Q196.8 69.3 194.6 71.8Q192.5 74.3 188.3 74.3ZM188.4 68.0L188.4 68.0Q190.0 68.0 190.0 65.0L190.0 65.0L190.0 48.2Q190.0 45.6 188.4 45.6L188.4 45.6Q186.7 45.6 186.7 48.2L186.7 48.2L186.7 65.0Q186.7 66.6 187.1 67.3Q187.5 68.0 188.4 68.0Z M206.5 74L199.6 74L199.6 39.6L210.1 39.6Q212.8 39.6 214.1 40.8Q215.5 42.0 215.9 44.2Q216.4 46.3 216.4 49.3L216.4 49.3Q216.4 52.1 215.7 53.7Q215.0 55.4 213.0 56.1L213.0 56.1Q214.6 56.4 215.3 57.7Q215.9 59.0 215.9 61.0L215.9 61.0L215.9 74L209.1 74L209.1 60.5Q209.1 59.0 208.5 58.7Q207.9 58.3 206.5 58.3L206.5 58.3L206.5 74ZM206.6 46.0L206.6 52.4L208.2 52.4Q209.7 52.4 209.7 49.3L209.7 49.3Q209.7 47.2 209.4 46.6Q209.0 46.0 208.2 46.0L208.2 46.0L206.6 46.0Z M232.8 74L218.7 74L218.7 39.6L232.4 39.6L232.4 46.3L225.6 46.3L225.6 53.0L232.1 53.0L232.1 59.4L225.6 59.4L225.6 67.3L232.8 67.3L232.8 74Z  M253.9 72.1L253.9 77.7Q250.8 77.5 248.6 76.1Q246.3 74.6 245.1 72.1Q243.9 69.6 243.9 66.4L243.9 66.4L243.9 49.7Q243.9 44.4 246.4 41.5Q248.8 38.5 253.9 38.4L253.9 38.4L253.9 43.6Q252.4 43.9 251.8 44.8Q251.2 45.7 251.2 47.5L251.2 47.5L251.2 68.6Q251.2 70.0 252.0 70.9Q252.8 71.8 253.9 72.1L253.9 72.1Z M264.0 74.3L264.0 74.3Q255.4 74.3 255.4 65.5L255.4 65.5L255.4 63.2L262.4 63.2L262.4 66.6Q262.4 67.6 262.8 68.2Q263.2 68.8 264.0 68.8L264.0 68.8Q265.6 68.8 265.6 66.5L265.6 66.5Q265.6 64.6 264.8 63.6Q264.0 62.7 262.8 61.8L262.8 61.8L259.1 58.9Q257.3 57.6 256.4 56.0Q255.5 54.5 255.5 51.8L255.5 51.8Q255.5 49.3 256.7 47.6Q257.9 46.0 259.9 45.2Q261.9 44.4 264.2 44.4L264.2 44.4Q272.7 44.4 272.7 52.9L272.7 52.9L272.7 53.4L265.4 53.4L265.4 52.3Q265.4 51.4 265.1 50.6Q264.8 49.8 264.0 49.8L264.0 49.8Q262.5 49.8 262.5 51.4L262.5 51.4Q262.5 52.9 263.7 53.8L263.7 53.8L268.1 57.0Q270.1 58.5 271.5 60.5Q272.8 62.5 272.8 65.8L272.8 65.8Q272.8 70.0 270.5 72.1Q268.1 74.3 264.0 74.3Z M283.5 74.3L283.5 74.3Q274.8 74.3 274.8 65.2L274.8 65.2L274.8 53.5Q274.8 49.3 277.1 46.9Q279.4 44.4 283.5 44.4L283.5 44.4Q287.6 44.4 290.0 46.9Q292.3 49.3 292.3 53.5L292.3 53.5L292.3 65.2Q292.3 74.3 283.5 74.3ZM283.5 68.9L283.5 68.9Q284.4 68.9 284.8 68.3Q285.2 67.7 285.2 66.7L285.2 66.7L285.2 52.4Q285.2 49.8 283.5 49.8L283.5 49.8Q281.9 49.8 281.9 52.4L281.9 52.4L281.9 66.7Q281.9 67.7 282.3 68.3Q282.6 68.9 283.5 68.9Z M303.4 74.3L303.4 74.3Q294.6 74.3 294.6 65.2L294.6 65.2L294.6 53.5Q294.6 49.3 297.0 46.9Q299.3 44.4 303.4 44.4L303.4 44.4Q307.5 44.4 309.8 46.9Q312.1 49.3 312.1 53.5L312.1 53.5L312.1 65.2Q312.1 74.3 303.4 74.3ZM303.4 68.9L303.4 68.9Q304.3 68.9 304.6 68.3Q305.0 67.7 305.0 66.7L305.0 66.7L305.0 52.4Q305.0 49.8 303.4 49.8L303.4 49.8Q301.7 49.8 301.7 52.4L301.7 52.4L301.7 66.7Q301.7 67.7 302.1 68.3Q302.5 68.9 303.4 68.9Z M321.7 74L314.7 74L314.7 44.7L321.7 44.7L321.7 48.4Q322.1 46.8 323.2 45.6Q324.2 44.4 326.1 44.4L326.1 44.4Q329.2 44.4 330.6 46.3Q331.9 48.1 331.9 51.4L331.9 51.4L331.9 74L325.0 74L325.0 52.1Q325.0 51.3 324.7 50.5Q324.3 49.8 323.5 49.8L323.5 49.8Q322.7 49.8 322.3 50.4Q321.9 50.9 321.8 51.7Q321.7 52.6 321.7 53.4L321.7 53.4L321.7 74Z M339.6 78.6L335.5 78.6L336.8 74.0L334.3 74.0L334.3 68.2L341.6 68.2L341.6 73.8L339.6 78.6Z  M360.4 42.9L353.5 42.9L353.5 37.1L360.4 37.1L360.4 42.9ZM360.4 74L353.5 74L353.5 44.7L360.4 44.7L360.4 74Z M368.0 52.0L364.6 52.0L362.6 39.6L369.5 39.6L368.0 52.0Z M378.8 74L371.8 74L371.8 44.7L378.6 44.7L378.6 48.1Q379.1 46.3 380.2 45.3Q381.3 44.4 383.5 44.4L383.5 44.4Q385.3 44.4 386.5 45.2Q387.8 46.0 388.3 47.3L388.3 47.3Q389.1 45.9 390.2 45.1Q391.2 44.4 393.3 44.4L393.3 44.4Q395.7 44.4 397.0 45.4Q398.3 46.5 398.9 48.3Q399.4 50.2 399.4 52.6L399.4 52.6L399.4 74L392.4 74L392.4 52.5Q392.4 49.6 391.0 49.6L391.0 49.6Q390.2 49.6 389.8 50.2Q389.4 50.7 389.2 51.4Q389.1 52.2 389.1 53.0L389.1 53.0L389.1 74L382.1 74L382.1 52.5Q382.1 51.6 381.9 50.6Q381.6 49.7 380.7 49.7L380.7 49.7Q379.9 49.7 379.5 50.3Q379.1 50.9 378.9 51.7Q378.8 52.5 378.8 53.3L378.8 53.3L378.8 74Z  M419.5 74.3L419.5 74.3Q410.8 74.3 410.8 65.5L410.8 65.5L410.8 63.2L417.9 63.2L417.9 66.6Q417.9 67.6 418.3 68.2Q418.7 68.8 419.5 68.8L419.5 68.8Q421.0 68.8 421.0 66.5L421.0 66.5Q421.0 64.6 420.2 63.6Q419.4 62.7 418.3 61.8L418.3 61.8L414.5 58.9Q412.8 57.6 411.9 56.0Q411.0 54.5 411.0 51.8L411.0 51.8Q411.0 49.3 412.2 47.6Q413.4 46.0 415.3 45.2Q417.3 44.4 419.6 44.4L419.6 44.4Q428.1 44.4 428.1 52.9L428.1 52.9L428.1 53.4L420.9 53.4L420.9 52.3Q420.9 51.4 420.6 50.6Q420.3 49.8 419.4 49.8L419.4 49.8Q417.9 49.8 417.9 51.4L417.9 51.4Q417.9 52.9 419.2 53.8L419.2 53.8L423.5 57.0Q425.6 58.5 426.9 60.5Q428.3 62.5 428.3 65.8L428.3 65.8Q428.3 70.0 426.0 72.1Q423.6 74.3 419.5 74.3Z M436.5 74.3L436.5 74.3Q433.7 74.3 432.7 73.1Q431.7 71.9 431.7 69.4L431.7 69.4L431.7 51.2L429.7 51.2L429.7 45.8L431.7 45.8L431.7 39.6L438.5 39.6L438.5 45.8L440.4 45.8L440.4 51.2L438.5 51.2L438.5 67.8Q438.5 68.5 438.7 68.8Q438.9 69.1 439.6 69.1L439.6 69.1Q440.1 69.1 440.4 69.0L440.4 69.0L440.4 73.8Q440.2 73.9 439.0 74.1Q437.8 74.3 436.5 74.3Z M449.6 42.9L442.6 42.9L442.6 37.1L449.6 37.1L449.6 42.9ZM449.6 74L442.6 74L442.6 44.7L449.6 44.7L449.6 74Z M459.5 74L452.4 74L452.4 39.6L459.5 39.6L459.5 74Z M469.4 74L462.3 74L462.3 39.6L469.4 39.6L469.4 74Z  M493.3 74.3L493.3 74.3Q491.6 74.3 490.5 73.5Q489.5 72.6 488.8 70.9L488.8 70.9L488.8 74L481.7 74L481.7 39.6L488.8 39.6L488.8 47.8Q489.5 46.2 490.6 45.3Q491.7 44.4 493.9 44.4L493.9 44.4Q496.7 44.4 497.9 46.5Q499.1 48.6 499.1 51.9L499.1 51.9L499.1 66.4Q499.1 68.6 498.5 70.4Q497.9 72.2 496.6 73.3Q495.3 74.3 493.3 74.3ZM490.4 68.9L490.4 68.9Q491.5 68.9 491.8 67.8Q492.0 66.7 492.0 65.1L492.0 65.1L492.0 53.6Q492.0 52.0 491.8 50.9Q491.5 49.8 490.4 49.8L490.4 49.8Q489.3 49.8 489.1 50.9Q488.8 52.0 488.8 53.6L488.8 53.6L488.8 65.1Q488.8 66.7 489.1 67.8Q489.3 68.9 490.4 68.9Z M507.3 74.3L507.3 74.3Q505.0 74.3 503.7 73.3Q502.5 72.4 502.0 70.6Q501.6 68.9 501.6 66.5L501.6 66.5L501.6 44.7L508.6 44.7L508.6 65.7Q508.6 67.5 508.9 68.2Q509.2 68.8 510.2 68.8L510.2 68.8Q511.3 68.8 511.6 67.9Q511.9 66.9 511.9 65.3L511.9 65.3L511.9 44.7L518.8 44.7L518.8 74L511.8 74L511.8 70.9Q511.2 72.6 510.2 73.4Q509.3 74.3 507.3 74.3Z M528.6 42.9L521.6 42.9L521.6 37.1L528.6 37.1L528.6 42.9ZM528.6 74L521.6 74L521.6 44.7L528.6 44.7L528.6 74Z M538.5 74L531.4 74L531.4 39.6L538.5 39.6L538.5 74Z M547.0 74.3L547.0 74.3Q545.0 74.3 543.8 73.6Q542.6 72.8 542.0 71.5Q541.5 70.2 541.3 68.5Q541.1 66.7 541.1 64.7L541.1 64.7L541.1 51.9Q541.1 48.6 542.3 46.5Q543.5 44.4 546.4 44.4L546.4 44.4Q548.5 44.4 549.6 45.3Q550.8 46.2 551.4 47.8L551.4 47.8L551.4 39.6L558.5 39.6L558.5 74L551.4 74L551.4 70.9Q550.8 72.5 549.9 73.4Q548.9 74.3 547.0 74.3ZM549.7 68.8L549.7 68.8Q550.7 68.8 551.1 68.0Q551.4 67.2 551.4 65.2L551.4 65.2L551.4 52.8Q551.4 51.8 551.1 50.8Q550.8 49.8 549.8 49.8L549.8 49.8Q548.6 49.8 548.3 50.8Q548.0 51.7 548.0 52.8L548.0 52.8L548.0 65.2Q548.0 68.8 549.7 68.8Z M568.2 42.9L561.2 42.9L561.2 37.1L568.2 37.1L568.2 42.9ZM568.2 74L561.2 74L561.2 44.7L568.2 44.7L568.2 74Z M577.9 74L570.9 74L570.9 44.7L577.9 44.7L577.9 48.4Q578.3 46.8 579.4 45.6Q580.4 44.4 582.3 44.4L582.3 44.4Q585.4 44.4 586.8 46.3Q588.1 48.1 588.1 51.4L588.1 51.4L588.1 74L581.2 74L581.2 52.1Q581.2 51.3 580.9 50.5Q580.5 49.8 579.7 49.8L579.7 49.8Q578.9 49.8 578.5 50.4Q578.1 50.9 578.0 51.7Q577.9 52.6 577.9 53.4L577.9 53.4L577.9 74Z M598.8 79.1L598.8 79.1Q596.7 79.1 595.3 78.9Q593.8 78.7 592.7 78.1Q591.5 77.6 590.4 76.7L590.4 76.7L592.7 72.6Q595.3 74.1 597.8 74.1L597.8 74.1Q599.5 74.1 600.3 73.1Q601.2 72.0 601.2 70.3L601.2 70.3L601.2 67.4Q600.3 70.4 596.7 70.4L596.7 70.4Q594.6 70.4 593.3 69.4Q592.0 68.4 591.4 66.7Q590.9 65.0 590.9 62.9L590.9 62.9L590.9 52.4Q590.9 50.0 591.4 48.2Q591.9 46.4 593.1 45.4Q594.4 44.4 596.7 44.4L596.7 44.4Q598.6 44.4 599.7 45.4Q600.8 46.3 601.2 48.0L601.2 48.0L601.2 44.7L608.3 44.7L608.3 69.8Q608.3 74.8 606.0 76.9Q603.7 79.1 598.8 79.1ZM599.5 65.1L599.5 65.1Q601.2 65.1 601.2 62.2L601.2 62.2L601.2 52.2Q601.2 51.4 600.7 50.6Q600.3 49.7 599.5 49.7L599.5 49.7Q598.4 49.7 598.2 50.5Q597.9 51.2 597.9 52.2L597.9 52.2L597.9 62.2Q597.9 63.2 598.2 64.2Q598.5 65.1 599.5 65.1Z  M626.4 74.3L626.4 74.3Q623.6 74.3 622.6 73.1Q621.6 71.9 621.6 69.4L621.6 69.4L621.6 51.2L619.6 51.2L619.6 45.8L621.6 45.8L621.6 39.6L628.4 39.6L628.4 45.8L630.4 45.8L630.4 51.2L628.4 51.2L628.4 67.8Q628.4 68.5 628.7 68.8Q628.9 69.1 629.5 69.1L629.5 69.1Q630.0 69.1 630.4 69.0L630.4 69.0L630.4 73.8Q630.2 73.9 628.9 74.1Q627.7 74.3 626.4 74.3Z M639.8 74L632.6 74L632.6 39.6L639.8 39.6L639.8 47.6Q640.4 46.0 641.5 45.2Q642.7 44.4 644.3 44.4L644.3 44.4Q647.3 44.4 648.7 46.3Q650.1 48.2 650.1 51.4L650.1 51.4L650.1 74L643.0 74L643.0 51.9Q643.0 50.9 642.6 50.3Q642.2 49.7 641.4 49.7L641.4 49.7Q640.6 49.7 640.2 50.3Q639.8 51.0 639.8 51.8L639.8 51.8L639.8 74Z M659.8 42.9L652.8 42.9L652.8 37.1L659.8 37.1L659.8 42.9ZM659.8 74L652.8 74L652.8 44.7L659.8 44.7L659.8 74Z M670.6 74.3L670.6 74.3Q661.9 74.3 661.9 65.5L661.9 65.5L661.9 63.2L668.9 63.2L668.9 66.6Q668.9 67.6 669.3 68.2Q669.7 68.8 670.6 68.8L670.6 68.8Q672.1 68.8 672.1 66.5L672.1 66.5Q672.1 64.6 671.3 63.6Q670.5 62.7 669.4 61.8L669.4 61.8L665.6 58.9Q663.9 57.6 662.9 56.0Q662.0 54.5 662.0 51.8L662.0 51.8Q662.0 49.3 663.2 47.6Q664.4 46.0 666.4 45.2Q668.4 44.4 670.7 44.4L670.7 44.4Q679.2 44.4 679.2 52.9L679.2 52.9L679.2 53.4L672.0 53.4L672.0 52.3Q672.0 51.4 671.7 50.6Q671.4 49.8 670.5 49.8L670.5 49.8Q669.0 49.8 669.0 51.4L669.0 51.4Q669.0 52.9 670.3 53.8L670.3 53.8L674.6 57.0Q676.6 58.5 678.0 60.5Q679.4 62.5 679.4 65.8L679.4 65.8Q679.4 70.0 677.0 72.1Q674.7 74.3 670.6 74.3Z  M698.0 74L690.9 74L690.9 44.7L698.0 44.7L698.0 48.0Q698.5 46.3 699.8 45.3Q701.1 44.4 703.1 44.4L703.1 44.4L703.1 50.2Q702.2 50.2 701.0 50.4Q699.8 50.6 698.9 50.9Q698.0 51.2 698.0 51.6L698.0 51.6L698.0 74Z M713.0 74.3L713.0 74.3Q709.9 74.3 708.0 73.1Q706.2 72.0 705.3 69.8Q704.5 67.6 704.5 64.4L704.5 64.4L704.5 52.7Q704.5 48.6 706.9 46.5Q709.2 44.4 713.3 44.4L713.3 44.4Q721.8 44.4 721.8 52.7L721.8 52.7L721.8 54.8Q721.8 58.7 721.7 60.0L721.7 60.0L711.5 60.0L711.5 65.7Q711.5 66.4 711.6 67.2Q711.7 67.9 712.1 68.4Q712.4 68.9 713.2 68.9L713.2 68.9Q714.3 68.9 714.5 68.0Q714.8 67.0 714.8 65.5L714.8 65.5L714.8 62.7L721.8 62.7L721.8 64.4Q721.8 67.6 721.0 69.8Q720.2 72.1 718.2 73.2Q716.3 74.3 713.0 74.3ZM711.5 52.6L711.5 56.5L714.8 56.5L714.8 52.6Q714.8 51.0 714.4 50.3Q714.0 49.6 713.3 49.6L713.3 49.6Q712.4 49.6 712.0 50.3Q711.5 50.9 711.5 52.6L711.5 52.6Z M729.6 74.3L729.6 74.3Q727.2 74.3 725.9 73.2Q724.6 72.0 724.2 70.1Q723.7 68.1 723.7 65.6L723.7 65.6Q723.7 62.9 724.2 61.2Q724.8 59.5 726.0 58.4Q727.3 57.3 729.6 56.6L729.6 56.6L733.9 55.1L733.9 52.1Q733.9 49.7 732.4 49.7L732.4 49.7Q731.0 49.7 731.0 51.6L731.0 51.6L731.0 53.4L724.2 53.4Q724.1 53.2 724.1 53.0Q724.1 52.7 724.1 52.4L724.1 52.4Q724.1 48.0 726.2 46.2Q728.3 44.4 732.7 44.4L732.7 44.4Q735.1 44.4 736.9 45.2Q738.8 46.1 739.9 47.7Q741.0 49.3 741.0 51.7L741.0 51.7L741.0 74L734.0 74L734.0 70.5Q733.5 72.4 732.3 73.3Q731.2 74.3 729.6 74.3ZM732.4 68.9L732.4 68.9Q733.3 68.9 733.6 68.2Q733.9 67.4 733.9 66.6L733.9 66.6L733.9 58.4Q732.4 59.0 731.6 59.9Q730.8 60.8 730.8 62.5L730.8 62.5L730.8 66.3Q730.8 68.9 732.4 68.9Z M749.4 74.3L749.4 74.3Q747.4 74.3 746.2 73.6Q745.0 72.8 744.4 71.5Q743.8 70.2 743.6 68.5Q743.5 66.7 743.5 64.7L743.5 64.7L743.5 51.9Q743.5 48.6 744.7 46.5Q745.9 44.4 748.7 44.4L748.7 44.4Q750.9 44.4 752 45.3Q753.1 46.2 753.8 47.8L753.8 47.8L753.8 39.6L760.9 39.6L760.9 74L753.8 74L753.8 70.9Q753.2 72.5 752.2 73.4Q751.2 74.3 749.4 74.3ZM752.1 68.8L752.1 68.8Q753.1 68.8 753.4 68.0Q753.8 67.2 753.8 65.2L753.8 65.2L753.8 52.8Q753.8 51.8 753.5 50.8Q753.2 49.8 752.1 49.8L752.1 49.8Q751.0 49.8 750.7 50.8Q750.4 51.7 750.4 52.8L750.4 52.8L750.4 65.2Q750.4 68.8 752.1 68.8Z M770.6 74L763.6 74L763.6 44.7L770.4 44.7L770.4 48.1Q770.9 46.3 772.0 45.3Q773.1 44.4 775.3 44.4L775.3 44.4Q777.1 44.4 778.3 45.2Q779.6 46.0 780.1 47.3L780.1 47.3Q780.9 45.9 782.0 45.1Q783.0 44.4 785.1 44.4L785.1 44.4Q787.5 44.4 788.8 45.4Q790.1 46.5 790.7 48.3Q791.2 50.2 791.2 52.6L791.2 52.6L791.2 74L784.2 74L784.2 52.5Q784.2 49.6 782.8 49.6L782.8 49.6Q782.0 49.6 781.6 50.2Q781.2 50.7 781.0 51.4Q780.9 52.2 780.9 53.0L780.9 53.0L780.9 74L773.9 74L773.9 52.5Q773.9 51.6 773.7 50.6Q773.4 49.7 772.5 49.7L772.5 49.7Q771.7 49.7 771.3 50.3Q770.9 50.9 770.7 51.7Q770.6 52.5 770.6 53.3L770.6 53.3L770.6 74Z M802.1 74.3L802.1 74.3Q799.0 74.3 797.1 73.1Q795.3 72.0 794.5 69.8Q793.7 67.6 793.7 64.4L793.7 64.4L793.7 52.7Q793.7 48.6 796.0 46.5Q798.4 44.4 802.5 44.4L802.5 44.4Q810.9 44.4 810.9 52.7L810.9 52.7L810.9 54.8Q810.9 58.7 810.8 60.0L810.8 60.0L800.7 60.0L800.7 65.7Q800.7 66.4 800.8 67.2Q800.9 67.9 801.2 68.4Q801.5 68.9 802.3 68.9L802.3 68.9Q803.4 68.9 803.7 68.0Q803.9 67.0 803.9 65.5L803.9 65.5L803.9 62.7L810.9 62.7L810.9 64.4Q810.9 67.6 810.1 69.8Q809.3 72.1 807.4 73.2Q805.4 74.3 802.1 74.3ZM800.6 52.6L800.6 56.5L803.9 56.5L803.9 52.6Q803.9 51.0 803.6 50.3Q803.2 49.6 802.4 49.6L802.4 49.6Q801.5 49.6 801.1 50.3Q800.6 50.9 800.6 52.6L800.6 52.6Z M812.7 77.7L812.7 77.7L812.7 72.1Q813.9 71.8 814.7 70.9Q815.4 70.0 815.4 68.6L815.4 68.6L815.4 47.5Q815.4 45.7 814.8 44.8Q814.2 43.9 812.7 43.6L812.7 43.6L812.7 38.4Q817.8 38.5 820.3 41.5Q822.7 44.4 822.7 49.7L822.7 49.7L822.7 66.4Q822.7 69.6 821.5 72.2Q820.3 74.8 818.1 76.2Q815.8 77.7 812.7 77.7Z" fill="#ffffff" stroke="#15130f" stroke-width="6" paint-order="stroke"/></g>
  <g transform="skewX(-12)"><path d="M32.7 104L30.5 104L30.5 92.8L32.8 92.8L33.8 98.2L33.8 92.8L36.0 92.8L36.0 104L33.8 104L32.7 98.4L32.7 104Z M41.6 104L37.0 104L37.0 92.8L41.4 92.8L41.4 95.0L39.2 95.0L39.2 97.2L41.3 97.2L41.3 99.3L39.2 99.3L39.2 101.8L41.6 101.8L41.6 104Z M44.3 104L42.0 104L43.2 98.1L42.2 92.8L44.4 92.8L45.0 96.7L45.5 92.8L47.7 92.8L46.8 98.1L48.0 104L45.7 104L45.0 99.6L44.3 104Z M51.8 104L49.6 104L49.6 95.0L48.2 95.0L48.2 92.8L53.1 92.8L53.1 95.0L51.8 95.0L51.8 104Z M56.0 97.8L53.7 97.8L53.7 95.9L56.0 95.9L56.0 97.8ZM56.0 102.5L53.7 102.5L53.7 100.6L56.0 100.6L56.0 102.5Z" fill="#e01b24"/></g>
  <g transform="skewX(-12)"><path d="M94.6 95.2L94.6 96.8L93.8 96.8L91.3 100.6L91.3 102.5L92.7 102.5L92.7 104L88.1 104L88.1 102.5L89.5 102.5L89.5 100.6L86.8 96.8L86.1 96.8L86.1 95.2L89.7 95.2L89.7 96.8L89.0 96.8L90.4 99.0L90.5 99.0L92.0 96.8L91.1 96.8L91.1 95.2L94.6 95.2Z M101.5 101.0L101.5 101.0Q101.5 102.4 100.6 103.3Q99.6 104.1 98.2 104.1L98.2 104.1Q96.8 104.1 95.9 103.3Q95.0 102.5 95.0 101.0L95.0 101.0Q95.0 99.7 95.8 98.7Q96.6 97.8 98.3 97.8L98.3 97.8Q99.9 97.8 100.7 98.7Q101.5 99.7 101.5 101.0ZM99.7 100.9L99.7 100.9Q99.7 100.0 99.3 99.5Q98.9 99.1 98.2 99.1L98.2 99.1Q97.6 99.1 97.2 99.6Q96.8 100.1 96.8 100.9L96.8 100.9Q96.8 101.7 97.1 102.3Q97.5 102.8 98.2 102.8L98.2 102.8Q98.9 102.8 99.3 102.3Q99.7 101.8 99.7 100.9Z M109.5 102.7L109.5 104L106.9 104L106.9 103.1Q106.3 104.1 104.9 104.1L104.9 104.1Q104.0 104.1 103.4 103.6Q102.8 103.1 102.8 102.0L102.8 102.0L102.8 99.2L102.0 99.2L102.0 97.9L104.5 97.9L104.5 101.3Q104.5 102.1 104.8 102.5Q105.0 102.8 105.6 102.8L105.6 102.8Q106.2 102.8 106.5 102.4Q106.9 102.0 106.9 101.4L106.9 101.4L106.9 99.2L105.9 99.2L105.9 97.9L108.6 97.9L108.6 102.7L109.5 102.7Z  M116.9 101.5L118.3 101.7Q118.3 102.6 117.6 103.4Q117.0 104.1 115.5 104.1L115.5 104.1Q114.2 104.1 113.3 103.4Q112.5 102.6 112.5 101.1L112.5 101.1Q112.5 99.4 113.4 98.6Q114.4 97.8 115.7 97.8L115.7 97.8Q116.2 97.8 116.7 97.9Q117.3 98.0 117.9 98.3L117.9 98.3L118.1 100.2L116.8 100.3L116.6 99.3Q116.0 99.2 115.6 99.2L115.6 99.2Q115.1 99.2 114.7 99.6Q114.3 100.0 114.3 101.0L114.3 101.0Q114.3 102.8 115.7 102.8L115.7 102.8Q116.7 102.8 116.9 101.5L116.9 101.5Z M119.2 99.9L119.5 98.3Q120.3 98.0 120.8 97.9Q121.3 97.8 122.1 97.8L122.1 97.8Q123.1 97.8 123.8 98.3Q124.5 98.8 124.5 99.9L124.5 99.9L124.5 102.5Q124.5 103.0 124.9 103.0L124.9 103.0Q125.0 103.0 125.2 102.9L125.2 102.9L125.2 103.9Q124.7 104.1 124.1 104.1L124.1 104.1Q122.9 104.1 122.8 102.9L122.8 102.9L122.8 102.9Q122.5 103.4 122.0 103.8Q121.5 104.1 120.8 104.1L120.8 104.1Q120.1 104.1 119.5 103.7Q118.9 103.4 118.9 102.4L118.9 102.4Q118.9 101.3 119.8 100.9Q120.7 100.5 121.8 100.5L121.8 100.5Q122.3 100.5 122.8 100.6L122.8 100.6L122.8 100.4Q122.8 99.9 122.6 99.5Q122.5 99.0 121.8 99.0L121.8 99.0Q121.5 99.0 121.3 99.1Q121.0 99.1 120.8 99.2L120.8 99.2L120.6 100.1L119.2 99.9ZM122.8 101.5L122.8 101.5L122.8 101.4Q122.5 101.4 122.3 101.4Q122.1 101.4 121.9 101.4L121.9 101.4Q121.4 101.4 121.1 101.5Q120.7 101.7 120.7 102.2L120.7 102.2Q120.7 102.5 120.9 102.7Q121.0 102.9 121.4 102.9L121.4 102.9Q121.9 102.9 122.3 102.6Q122.7 102.2 122.8 101.5Z M133.2 102.7L133.2 104L129.9 104L129.9 102.7L130.7 102.7L130.7 100.6Q130.7 99.8 130.4 99.5Q130.2 99.1 129.6 99.1L129.6 99.1Q129.0 99.1 128.7 99.5Q128.3 99.9 128.3 100.5L128.3 100.5L128.3 102.7L129.1 102.7L129.1 104L125.8 104L125.8 102.7L126.6 102.7L126.6 99.2L125.7 99.2L125.7 97.9L128.3 97.9L128.3 98.8Q128.9 97.8 130.3 97.8L130.3 97.8Q131.2 97.8 131.8 98.3Q132.4 98.8 132.4 99.9L132.4 99.9L132.4 102.7L133.2 102.7Z  M140.6 101.5L142.1 101.7Q142.0 102.6 141.3 103.4Q140.7 104.1 139.2 104.1L139.2 104.1Q137.9 104.1 137.1 103.4Q136.2 102.6 136.2 101.1L136.2 101.1Q136.2 99.4 137.1 98.6Q138.1 97.8 139.4 97.8L139.4 97.8Q139.9 97.8 140.5 97.9Q141.0 98.0 141.6 98.3L141.6 98.3L141.9 100.2L140.5 100.3L140.3 99.3Q139.7 99.2 139.4 99.2L139.4 99.2Q138.8 99.2 138.4 99.6Q138.0 100.0 138.0 101.0L138.0 101.0Q138.0 102.8 139.4 102.8L139.4 102.8Q140.4 102.8 140.6 101.5L140.6 101.5Z M149.9 102.7L149.9 104L146.6 104L146.6 102.7L147.4 102.7L147.4 100.6Q147.4 99.8 147.1 99.5Q146.8 99.1 146.3 99.1L146.3 99.1Q145.7 99.1 145.4 99.5Q145.1 99.8 145.0 100.4L145.0 100.4L145.0 102.7L145.9 102.7L145.9 104L142.5 104L142.5 102.7L143.3 102.7L143.3 96.0L142.5 96.0L142.5 94.7L145.0 94.7L145.0 98.8Q145.7 97.8 147.0 97.8L147.0 97.8Q147.9 97.8 148.5 98.3Q149.1 98.8 149.1 99.9L149.1 99.9L149.1 102.7L149.9 102.7Z M154.9 101.8L156.4 102.1Q156.3 102.9 155.6 103.5Q154.8 104.1 153.5 104.1L153.5 104.1Q152.2 104.1 151.3 103.4Q150.4 102.6 150.4 101.1L150.4 101.1Q150.4 99.7 151.2 98.7Q152.0 97.8 153.5 97.8L153.5 97.8Q154.7 97.8 155.5 98.5Q156.3 99.2 156.3 100.4L156.3 100.4Q156.3 100.9 156.2 101.3L156.2 101.3L152.2 101.3Q152.4 102.8 153.7 102.8L153.7 102.8Q154.4 102.8 154.6 102.4Q154.9 102.1 154.9 101.8L154.9 101.8ZM152.2 100.3L154.5 100.3Q154.6 99.8 154.3 99.4Q154.1 99.0 153.5 99.0L153.5 99.0Q152.9 99.0 152.6 99.4Q152.3 99.7 152.2 100.3L152.2 100.3Z M161.3 101.5L162.8 101.7Q162.7 102.6 162.1 103.4Q161.4 104.1 160.0 104.1L160.0 104.1Q158.6 104.1 157.8 103.4Q156.9 102.6 156.9 101.1L156.9 101.1Q156.9 99.4 157.9 98.6Q158.8 97.8 160.1 97.8L160.1 97.8Q160.6 97.8 161.2 97.9Q161.8 98.0 162.3 98.3L162.3 98.3L162.6 100.2L161.2 100.3L161.0 99.3Q160.5 99.2 160.1 99.2L160.1 99.2Q159.5 99.2 159.1 99.6Q158.7 100.0 158.7 101.0L158.7 101.0Q158.7 102.8 160.1 102.8L160.1 102.8Q161.2 102.8 161.3 101.5L161.3 101.5Z M170.3 102.7L170.3 104L167.2 104L167.2 102.7L167.7 102.7L166.7 101.5L165.8 101.5L165.8 102.7L166.3 102.7L166.3 104L163.2 104L163.2 102.7L164.0 102.7L164.0 96.0L163.2 96.0L163.2 94.7L165.8 94.7L165.8 100.3L166.8 100.3L167.7 99.2L166.9 99.2L166.9 97.9L170.0 97.9L170.0 99.2L169.3 99.2L168.0 100.7L169.8 102.7L170.3 102.7Z  M177.2 101.7L178.5 102.1Q178.3 103.2 177.7 103.6Q177.2 104.1 176.2 104.1L176.2 104.1Q175.2 104.1 174.6 103.6Q173.9 103.1 173.9 102.2L173.9 102.2L173.9 99.2L173.1 99.2L173.1 97.9L173.9 97.9L173.9 96.1L175.7 96.1L175.7 97.9L177.9 97.9L177.9 99.2L175.7 99.2L175.7 101.9Q175.7 102.7 176.4 102.7L176.4 102.7Q176.6 102.7 176.8 102.5Q177.1 102.4 177.2 101.7L177.2 101.7Z M186.0 102.7L186.0 104L182.7 104L182.7 102.7L183.5 102.7L183.5 100.6Q183.5 99.8 183.2 99.5Q182.9 99.1 182.4 99.1L182.4 99.1Q181.8 99.1 181.5 99.5Q181.2 99.8 181.1 100.4L181.1 100.4L181.1 102.7L181.9 102.7L181.9 104L178.6 104L178.6 102.7L179.4 102.7L179.4 96.0L178.6 96.0L178.6 94.7L181.1 94.7L181.1 98.8Q181.7 97.8 183.1 97.8L183.1 97.8Q184.0 97.8 184.6 98.3Q185.2 98.8 185.2 99.9L185.2 99.9L185.2 102.7L186.0 102.7Z M191.0 101.8L192.5 102.1Q192.4 102.9 191.7 103.5Q190.9 104.1 189.6 104.1L189.6 104.1Q188.3 104.1 187.4 103.4Q186.5 102.6 186.5 101.1L186.5 101.1Q186.5 99.7 187.3 98.7Q188.1 97.8 189.5 97.8L189.5 97.8Q190.8 97.8 191.6 98.5Q192.4 99.2 192.4 100.4L192.4 100.4Q192.4 100.9 192.3 101.3L192.3 101.3L188.3 101.3Q188.5 102.8 189.7 102.8L189.7 102.8Q190.4 102.8 190.7 102.4Q190.9 102.1 191.0 101.8L191.0 101.8ZM188.3 100.3L190.6 100.3Q190.7 99.8 190.4 99.4Q190.2 99.0 189.5 99.0L189.5 99.0Q189.0 99.0 188.7 99.4Q188.4 99.7 188.3 100.3L188.3 100.3Z  M202.7 100.8L202.7 100.8Q202.7 102.2 202.0 103.1Q201.2 104.1 199.9 104.1L199.9 104.1Q198.6 104.1 198.0 103.2L198.0 103.2L198.0 105.5L199.1 105.5L199.1 106.9L195.5 106.9L195.5 105.5L196.3 105.5L196.3 99.2L195.4 99.2L195.4 97.9L198.0 97.9L198.0 99.1Q198.3 98.5 198.7 98.2Q199.2 97.8 200.1 97.8L200.1 97.8Q201.2 97.8 201.9 98.6Q202.7 99.4 202.7 100.8ZM200.9 101.0L200.9 101.0Q200.9 100.1 200.5 99.6Q200.1 99.2 199.4 99.2L199.4 99.2Q198.8 99.2 198.4 99.7Q198.0 100.2 198.0 100.9L198.0 100.9L198.0 101.2Q198.0 101.9 198.4 102.3Q198.8 102.8 199.4 102.8L199.4 102.8Q200.1 102.8 200.5 102.3Q200.9 101.9 200.9 101.0Z M205.9 96.8L204.1 96.8L204.1 95.0L205.9 95.0L205.9 96.8ZM206.8 102.7L206.8 104L203.4 104L203.4 102.7L204.2 102.7L204.2 99.2L203.3 99.2L203.3 97.9L205.9 97.9L205.9 102.7L206.8 102.7Z M214.8 102.7L214.8 104L211.5 104L211.5 102.7L212.3 102.7L212.3 100.6Q212.3 99.8 212.0 99.5Q211.8 99.1 211.3 99.1L211.3 99.1Q210.6 99.1 210.3 99.5Q210.0 99.9 209.9 100.5L209.9 100.5L209.9 102.7L210.8 102.7L210.8 104L207.4 104L207.4 102.7L208.2 102.7L208.2 99.2L207.3 99.2L207.3 97.9L209.9 97.9L209.9 98.8Q210.6 97.8 211.9 97.8L211.9 97.8Q212.8 97.8 213.4 98.3Q214.0 98.8 214.0 99.9L214.0 99.9L214.0 102.7L214.8 102.7Z M222.8 102.7L222.8 104L219.5 104L219.5 102.7L220.3 102.7L220.3 100.6Q220.3 99.8 220.0 99.5Q219.8 99.1 219.3 99.1L219.3 99.1Q218.6 99.1 218.3 99.5Q218.0 99.9 217.9 100.5L217.9 100.5L217.9 102.7L218.8 102.7L218.8 104L215.4 104L215.4 102.7L216.2 102.7L216.2 99.2L215.3 99.2L215.3 97.9L217.9 97.9L217.9 98.8Q218.6 97.8 219.9 97.8L219.9 97.8Q220.8 97.8 221.4 98.3Q222.0 98.8 222.0 99.9L222.0 99.9L222.0 102.7L222.8 102.7Z M227.8 101.8L229.3 102.1Q229.2 102.9 228.5 103.5Q227.7 104.1 226.4 104.1L226.4 104.1Q225.1 104.1 224.2 103.4Q223.3 102.6 223.3 101.1L223.3 101.1Q223.3 99.7 224.1 98.7Q224.9 97.8 226.3 97.8L226.3 97.8Q227.6 97.8 228.4 98.5Q229.2 99.2 229.2 100.4L229.2 100.4Q229.2 100.9 229.1 101.3L229.1 101.3L225.1 101.3Q225.3 102.8 226.5 102.8L226.5 102.8Q227.3 102.8 227.5 102.4Q227.7 102.1 227.8 101.8L227.8 101.8ZM225.1 100.3L227.4 100.3Q227.5 99.8 227.2 99.4Q227.0 99.0 226.3 99.0L226.3 99.0Q225.8 99.0 225.5 99.4Q225.2 99.7 225.1 100.3L225.1 100.3Z M237.0 102.7L237.0 104L234.5 104L234.5 102.9Q234.2 103.4 233.7 103.8Q233.2 104.1 232.4 104.1L232.4 104.1Q231.2 104.1 230.5 103.3Q229.8 102.5 229.8 101.1L229.8 101.1Q229.8 99.7 230.5 98.7Q231.2 97.8 232.5 97.8L232.5 97.8Q233.3 97.8 233.8 98.1Q234.2 98.4 234.5 98.8L234.5 98.8L234.5 96.0L233.3 96.0L233.3 94.7L236.2 94.7L236.2 102.7L237.0 102.7ZM234.5 100.9L234.5 100.9L234.5 100.8Q234.5 100.0 234.1 99.6Q233.7 99.2 233.1 99.2L233.1 99.2Q232.5 99.2 232.1 99.6Q231.6 100.0 231.6 101.0L231.6 101.0Q231.6 101.8 232.0 102.3Q232.4 102.8 233.0 102.8L233.0 102.8Q233.7 102.8 234.1 102.2Q234.5 101.6 234.5 100.9Z  M247.2 100.8L247.2 100.8Q247.2 102.2 246.5 103.1Q245.7 104.1 244.4 104.1L244.4 104.1Q243.1 104.1 242.5 103.2L242.5 103.2L242.5 105.5L243.6 105.5L243.6 106.9L240.0 106.9L240.0 105.5L240.8 105.5L240.8 99.2L239.9 99.2L239.9 97.9L242.5 97.9L242.5 99.1Q242.7 98.5 243.2 98.2Q243.7 97.8 244.6 97.8L244.6 97.8Q245.7 97.8 246.4 98.6Q247.2 99.4 247.2 100.8ZM245.4 101.0L245.4 101.0Q245.4 100.1 245.0 99.6Q244.6 99.2 243.9 99.2L243.9 99.2Q243.3 99.2 242.9 99.7Q242.5 100.2 242.5 100.9L242.5 100.9L242.5 101.2Q242.5 101.9 242.9 102.3Q243.3 102.8 243.9 102.8L243.9 102.8Q244.6 102.8 245.0 102.3Q245.4 101.9 245.4 101.0Z M251.7 97.8L251.7 97.8Q252.0 97.8 252.3 97.9Q252.6 98.0 252.9 98.2L252.9 98.2L253.2 100.3L251.8 100.4L251.6 99.4Q251.3 99.2 251.1 99.2L251.1 99.2Q250.8 99.2 250.6 99.5Q250.4 99.7 250.4 100.2L250.4 100.2L250.4 102.7L251.5 102.7L251.5 104L247.9 104L247.9 102.7L248.7 102.7L248.7 99.2L247.8 99.2L247.8 97.9L250.3 97.9L250.3 99.1Q250.4 98.5 250.7 98.2Q251.1 97.8 251.7 97.8Z M260.2 101.0L260.2 101.0Q260.2 102.4 259.3 103.3Q258.3 104.1 256.9 104.1L256.9 104.1Q255.5 104.1 254.6 103.3Q253.7 102.5 253.7 101.0L253.7 101.0Q253.7 99.7 254.5 98.7Q255.3 97.8 257.0 97.8L257.0 97.8Q258.6 97.8 259.4 98.7Q260.2 99.7 260.2 101.0ZM258.4 100.9L258.4 100.9Q258.4 100.0 258.0 99.5Q257.5 99.1 256.9 99.1L256.9 99.1Q256.2 99.1 255.9 99.6Q255.5 100.1 255.5 100.9L255.5 100.9Q255.5 101.7 255.8 102.3Q256.2 102.8 256.9 102.8L256.9 102.8Q257.6 102.8 258.0 102.3Q258.4 101.8 258.4 100.9Z M263.3 96.8L261.6 96.8L261.6 95.0L263.3 95.0L263.3 96.8ZM263.3 97.9L263.3 103.8Q263.3 105.5 262.7 106.3Q262.1 107.2 260.3 107.0L260.3 107.0L260.2 105.8Q260.8 105.8 261.2 105.5Q261.6 105.2 261.6 103.8L261.6 103.8L261.6 99.2L260.6 99.2L260.6 97.9L263.3 97.9Z M268.8 101.8L270.3 102.1Q270.2 102.9 269.5 103.5Q268.8 104.1 267.5 104.1L267.5 104.1Q266.1 104.1 265.2 103.4Q264.3 102.6 264.3 101.1L264.3 101.1Q264.3 99.7 265.1 98.7Q265.9 97.8 267.4 97.8L267.4 97.8Q268.7 97.8 269.4 98.5Q270.2 99.2 270.2 100.4L270.2 100.4Q270.2 100.9 270.2 101.3L270.2 101.3L266.2 101.3Q266.3 102.8 267.6 102.8L267.6 102.8Q268.3 102.8 268.5 102.4Q268.8 102.1 268.8 101.8L268.8 101.8ZM266.2 100.3L268.5 100.3Q268.5 99.8 268.3 99.4Q268.0 99.0 267.4 99.0L267.4 99.0Q266.8 99.0 266.5 99.4Q266.3 99.7 266.2 100.3L266.2 100.3Z M275.3 101.5L276.7 101.7Q276.6 102.6 276.0 103.4Q275.4 104.1 273.9 104.1L273.9 104.1Q272.6 104.1 271.7 103.4Q270.9 102.6 270.9 101.1L270.9 101.1Q270.9 99.4 271.8 98.6Q272.7 97.8 274.0 97.8L274.0 97.8Q274.5 97.8 275.1 97.9Q275.7 98.0 276.2 98.3L276.2 98.3L276.5 100.2L275.1 100.3L274.9 99.3Q274.4 99.2 274.0 99.2L274.0 99.2Q273.4 99.2 273.1 99.6Q272.7 100.0 272.7 101.0L272.7 101.0Q272.7 102.8 274.1 102.8L274.1 102.8Q275.1 102.8 275.3 101.5L275.3 101.5Z M281.1 101.7L282.4 102.1Q282.3 103.2 281.7 103.6Q281.1 104.1 280.1 104.1L280.1 104.1Q279.1 104.1 278.5 103.6Q277.9 103.1 277.9 102.2L277.9 102.2L277.9 99.2L277.0 99.2L277.0 97.9L277.9 97.9L277.9 96.1L279.6 96.1L279.6 97.9L281.8 97.9L281.8 99.2L279.6 99.2L279.6 101.9Q279.6 102.7 280.3 102.7L280.3 102.7Q280.5 102.7 280.8 102.5Q281.1 102.4 281.1 101.7L281.1 101.7Z M288.2 102.1L288.2 102.1Q288.2 103.1 287.4 103.6Q286.6 104.1 285.3 104.1L285.3 104.1Q284.6 104.1 284.0 104.0Q283.3 103.9 282.7 103.5L282.7 103.5L282.9 101.8L284.3 102.0L284.3 102.7Q284.5 102.8 284.8 102.8Q285.1 102.9 285.2 102.9L285.2 102.9Q285.7 102.9 286.1 102.7Q286.4 102.5 286.4 102.2L286.4 102.2Q286.4 101.8 285.9 101.7Q285.3 101.6 284.6 101.5Q283.9 101.3 283.3 101.0Q282.7 100.6 282.7 99.7L282.7 99.7Q282.7 98.6 283.6 98.2Q284.5 97.8 285.4 97.8L285.4 97.8Q286.6 97.8 287.7 98.3L287.7 98.3L287.9 99.9L286.5 100.0L286.4 99.2Q285.9 99.0 285.4 99.0L285.4 99.0Q285.1 99.0 284.9 99.2Q284.6 99.3 284.6 99.6L284.6 99.6Q284.6 100.0 285.2 100.1Q285.7 100.3 286.4 100.4Q287.1 100.5 287.6 100.9Q288.2 101.3 288.2 102.1Z" fill="#ffffff"/></g>
  <rect x="2.5" y="2.5" width="875" height="115" fill="none" stroke="#ffffff" stroke-width="4"/></g><g transform="translate(448,16) scale(1.0)"><defs><pattern id="b36tn" width="6" height="6" patternUnits="userSpaceOnUse" patternTransform="rotate(15)"><rect width="6" height="6" fill="#ffffff"/><circle cx="3" cy="3" r="1.1" fill="#15130f"/></pattern><clipPath id="b36cor"><polygon points="0,0 150,0 0,120"/></clipPath></defs>
  <rect width="432" height="224" fill="#ffffff"/>
  <g clip-path="url(#b36cor)"><rect width="432" height="224" fill="url(#b36tn)" opacity="0.8"/></g>
  <g transform="translate(20,16)">
    <polygon points="0,0 52,0 46,24 -5,24" fill="#e01b24"/>
    <polygon points="15.0,5.0 16.8,9.6 21.7,9.8 17.9,12.9 19.1,17.7 15.0,15.0 10.9,17.7 12.1,12.9 8.3,9.8 13.2,9.6" fill="#ffffff"/>
    <g><path d="M30.8 17L28.5 17L28.5 8.7Q28.3 9.0 27.9 9.1Q27.5 9.3 27.2 9.3L27.2 9.3L27.2 7.6Q27.5 7.5 27.8 7.4Q28.2 7.2 28.5 6.9Q28.9 6.7 29.0 6.3L29.0 6.3L30.8 6.3L30.8 17Z M35.1 17.1L35.1 17.1Q33.7 17.1 33.0 16.4Q32.4 15.6 32.4 14.1L32.4 14.1L32.4 13.0L34.6 13.0L34.6 14.1Q34.6 14.5 34.7 14.8Q34.8 15.1 35.2 15.1L35.2 15.1Q35.5 15.1 35.6 14.8Q35.7 14.5 35.7 13.8L35.7 13.8L35.7 13.5Q35.7 12.9 35.6 12.5Q35.4 12.1 34.8 12.1L34.8 12.1Q34.8 12.1 34.7 12.1Q34.7 12.1 34.6 12.1L34.6 12.1L34.6 10.2Q35.2 10.2 35.5 9.9Q35.8 9.7 35.8 9.1L35.8 9.1Q35.8 8.2 35.2 8.2L35.2 8.2Q34.9 8.2 34.8 8.5Q34.7 8.7 34.7 9.2L34.7 9.2L34.7 9.5L32.4 9.5Q32.4 9.4 32.4 9.3Q32.4 9.2 32.4 9.1L32.4 9.1Q32.4 7.6 33.1 6.9Q33.8 6.2 35.2 6.2L35.2 6.2Q38.0 6.2 38.0 9.1L38.0 9.1Q38.0 9.9 37.8 10.4Q37.5 10.9 37.0 11.1L37.0 11.1Q37.4 11.3 37.6 11.7Q37.9 12.0 37.9 12.5Q38.0 13.0 38.0 13.8L38.0 13.8Q38.0 15.4 37.3 16.2Q36.6 17.1 35.1 17.1Z" fill="#ffffff"/></g>
  </g>
  <g transform="skewX(-12)" opacity="0.5"><path d="M328.0 27.4L328.0 27.4Q328.0 28.1 327.8 28.7Q327.6 29.3 327.1 29.7Q326.6 30.1 325.8 30.1L325.8 30.1Q324.6 30.1 324.1 29.2L324.1 29.2L324.0 30L323.2 30Q323.3 29.7 323.3 29.3Q323.4 28.9 323.4 28.6L323.4 28.6L323.4 23.1L322.5 23.1L322.5 22.4L324.2 22.4L324.2 26.1Q324.4 25.7 324.8 25.3Q325.2 25.0 325.9 25.0L325.9 25.0Q326.8 25.0 327.4 25.6Q328.0 26.3 328.0 27.4ZM327.2 27.5L327.2 27.5Q327.2 26.6 326.8 26.1Q326.3 25.7 325.7 25.7L325.7 25.7Q325.0 25.7 324.6 26.2Q324.2 26.7 324.2 27.2L324.2 27.2L324.2 28.0Q324.2 28.6 324.6 29.0Q325.0 29.4 325.7 29.4L325.7 29.4Q326.5 29.4 326.8 28.9Q327.2 28.3 327.2 27.5Z M329.0 25.9L329.2 24.7Q329.5 24.5 330.0 24.3Q330.5 24.2 331.0 24.2L331.0 24.2Q331.9 24.2 332.5 24.6Q333.0 25.1 333.0 25.9L333.0 25.9Q333.0 26.4 332.7 26.9Q332.4 27.4 331.6 27.6L331.6 27.6L331.6 27.6Q332.6 27.8 333.0 28.3Q333.3 28.8 333.3 29.4L333.3 29.4Q333.3 30.4 332.7 31.0Q332.1 31.6 331.0 31.6L331.0 31.6Q330.0 31.6 329.5 31.1Q328.9 30.6 328.8 30L328.8 30L329.4 29.8Q329.6 30.2 329.9 30.5Q330.3 30.9 331.0 30.9L331.0 30.9Q331.9 30.9 332.2 30.4Q332.5 30.0 332.5 29.4L332.5 29.4Q332.5 28.8 332.0 28.4Q331.5 28.0 330.4 28.0L330.4 28.0L330.4 27.4Q331.4 27.4 331.8 26.9Q332.2 26.5 332.2 26.0L332.2 26.0Q332.2 25.5 331.8 25.2Q331.5 24.9 330.9 24.9L330.9 24.9Q330.3 24.9 329.8 25.1L329.8 25.1L329.6 26.0L329.0 25.9Z M336.9 25.0L336.9 25.0Q337.5 25.0 337.8 25.3L337.8 25.3L338.0 26.5L337.3 26.6L337.1 25.7Q337.0 25.7 336.8 25.7L336.8 25.7Q336.3 25.7 336.1 26.0Q335.8 26.4 335.8 27.0L335.8 27.0L335.8 29.4L336.9 29.4L336.9 30L334.1 30L334.1 29.4L335 29.4L335 25.7L334.1 25.7L334.1 25.1L335.7 25.1L335.7 26.0Q335.9 25.6 336.2 25.3Q336.5 25.0 336.9 25.0Z M341.9 28.5L342.5 28.7Q342.3 30.1 340.9 30.1L340.9 30.1Q340.2 30.1 339.8 29.7Q339.4 29.3 339.4 28.6L339.4 28.6L339.4 25.7L338.6 25.7L338.6 25.1L339.4 25.1L339.4 23.5L340.2 23.5L340.2 25.1L342.1 25.1L342.1 25.7L340.2 25.7L340.2 28.5Q340.2 28.9 340.4 29.2Q340.5 29.4 341.0 29.4L341.0 29.4Q341.3 29.4 341.5 29.3Q341.8 29.1 341.9 28.5L341.9 28.5Z M346.5 29.3L346.5 30L343.1 30L343.1 29.3L344.4 29.3L344.4 25.0L343.1 25.0L343.1 24.3L345.2 24.3L345.2 29.3L346.5 29.3Z M353.0 29.4L353.0 30L350.5 30L350.5 29.4L351.3 29.4L351.3 27.1Q351.3 26.3 351.0 26.0Q350.7 25.7 350.2 25.7L350.2 25.7Q349.5 25.7 349.1 26.1Q348.7 26.5 348.7 27.1L348.7 27.1L348.7 29.4L349.6 29.4L349.6 30L347.1 30L347.1 29.4L347.9 29.4L347.9 25.7L347.1 25.7L347.1 25.1L348.7 25.1L348.7 26.0Q349.2 25.0 350.4 25.0L350.4 25.0Q351.1 25.0 351.6 25.4Q352.1 25.9 352.1 26.9L352.1 26.9L352.1 29.4L353.0 29.4Z M358.9 25.1L358.9 25.7L358.1 25.7L358.1 29.9Q358.1 31.1 357.5 31.8Q356.8 32.5 355.7 32.5L355.7 32.5Q354.9 32.5 354.3 32.1Q353.7 31.7 353.5 31.0L353.5 31.0L354.1 30.7Q354.3 31.3 354.8 31.5Q355.2 31.8 355.7 31.8L355.7 31.8Q356.4 31.8 356.9 31.3Q357.3 30.8 357.3 29.9L357.3 29.9L357.3 29.0Q357.1 29.4 356.7 29.7Q356.3 30.1 355.6 30.1L355.6 30.1Q354.7 30.1 354.1 29.4Q353.5 28.8 353.5 27.7L353.5 27.7Q353.5 26.7 354.0 25.9Q354.5 25.0 355.7 25.0L355.7 25.0Q356.8 25.0 357.3 25.9L357.3 25.9L357.3 25.1L358.9 25.1ZM357.3 27.9L357.3 27.9L357.3 27.0Q357.3 26.4 356.9 26.0Q356.5 25.7 355.9 25.7L355.9 25.7Q355.0 25.7 354.7 26.3Q354.3 26.9 354.3 27.6L354.3 27.6Q354.3 28.5 354.7 29.0Q355.1 29.4 355.7 29.4L355.7 29.4Q356.4 29.4 356.9 28.9Q357.3 28.4 357.3 27.9Z M361.8 22.4L362.6 22.4L360.2 30L359.4 30L361.8 22.4Z M370.4 26.4L370.4 26.4Q370.4 27.4 369.9 28.3Q369.5 29.1 368.7 29.6Q367.9 30.1 366.8 30.1L366.8 30.1Q365.2 30.1 364.2 29.0Q363.2 27.9 363.2 26.4L363.2 26.4Q363.2 24.9 364.2 23.8Q365.2 22.7 366.8 22.7L366.8 22.7Q368.4 22.7 369.4 23.8Q370.4 24.9 370.4 26.4ZM369.5 26.4L369.5 26.4Q369.5 25.1 368.8 24.3Q368.1 23.5 366.8 23.5L366.8 23.5Q365.5 23.5 364.8 24.3Q364.1 25.2 364.1 26.4L364.1 26.4Q364.1 27.6 364.8 28.5Q365.5 29.4 366.8 29.4L366.8 29.4Q368.1 29.4 368.8 28.5Q369.5 27.7 369.5 26.4Z M374.9 28.2L375.5 28.4Q375.4 29.0 375.0 29.5Q374.5 30.1 373.5 30.1L373.5 30.1Q372.5 30.1 371.9 29.5Q371.2 28.8 371.2 27.6L371.2 27.6Q371.2 26.6 371.8 25.8Q372.4 25.0 373.5 25.0L373.5 25.0Q374.0 25.0 374.4 25.1Q374.8 25.2 375.2 25.5L375.2 25.5L375.4 26.7L374.8 26.8L374.6 25.9Q374.1 25.7 373.5 25.7L373.5 25.7Q372.7 25.7 372.4 26.2Q372.1 26.8 372.1 27.6L372.1 27.6Q372.1 28.5 372.4 29.0Q372.8 29.4 373.6 29.4L373.6 29.4Q374.7 29.4 374.9 28.2L374.9 28.2Z M379.4 28.5L379.9 28.7Q379.7 30.1 378.4 30.1L378.4 30.1Q377.6 30.1 377.3 29.7Q376.9 29.3 376.9 28.6L376.9 28.6L376.9 25.7L376.1 25.7L376.1 25.1L376.9 25.1L376.9 23.5L377.6 23.5L377.6 25.1L379.6 25.1L379.6 25.7L377.6 25.7L377.6 28.5Q377.6 28.9 377.8 29.2Q378.0 29.4 378.5 29.4L378.5 29.4Q378.7 29.4 379.0 29.3Q379.2 29.1 379.4 28.5L379.4 28.5Z M385.2 27.5L385.2 27.5Q385.2 28.7 384.6 29.4Q383.9 30.1 382.8 30.1L382.8 30.1Q381.7 30.1 381.0 29.4Q380.4 28.7 380.4 27.6L380.4 27.6Q380.4 26.5 381.0 25.8Q381.6 25.0 382.8 25.0L382.8 25.0Q384.0 25.0 384.6 25.7Q385.2 26.5 385.2 27.5ZM384.4 27.5L384.4 27.5Q384.4 26.7 384.0 26.2Q383.6 25.7 382.8 25.7L382.8 25.7Q382.0 25.7 381.6 26.2Q381.2 26.7 381.2 27.5L381.2 27.5Q381.2 28.4 381.6 28.9Q382.0 29.4 382.8 29.4L382.8 29.4Q383.6 29.4 384.0 28.9Q384.4 28.4 384.4 27.5Z M389.7 28.2L390.3 28.4Q390.2 29.0 389.8 29.5Q389.3 30.1 388.3 30.1L388.3 30.1Q387.3 30.1 386.7 29.5Q386.1 28.8 386.1 27.6L386.1 27.6Q386.1 26.6 386.6 25.8Q387.2 25.0 388.3 25.0L388.3 25.0Q388.8 25.0 389.2 25.1Q389.6 25.2 390.0 25.5L390.0 25.5L390.2 26.7L389.6 26.8L389.4 25.9Q388.9 25.7 388.3 25.7L388.3 25.7Q387.5 25.7 387.2 26.2Q386.9 26.8 386.9 27.6L386.9 27.6Q386.9 28.5 387.3 29.0Q387.6 29.4 388.4 29.4L388.4 29.4Q389.5 29.4 389.7 28.2L389.7 28.2Z M393.8 25.0L393.8 25.0Q394.4 25.0 394.7 25.3L394.7 25.3L394.9 26.5L394.2 26.6L394.0 25.7Q393.9 25.7 393.7 25.7L393.7 25.7Q393.2 25.7 393.0 26.0Q392.7 26.4 392.7 27.0L392.7 27.0L392.7 29.4L393.8 29.4L393.8 30L391.0 30L391.0 29.4L391.9 29.4L391.9 25.7L391.0 25.7L391.0 25.1L392.6 25.1L392.6 26.0Q392.8 25.6 393.1 25.3Q393.4 25.0 393.8 25.0Z M396.1 26.6L396.2 25.5Q396.6 25.2 397.0 25.1Q397.5 25.0 398.0 25.0L398.0 25.0Q399.7 25.0 399.7 26.6L399.7 26.6L399.7 29.0Q399.7 29.5 400.1 29.5L400.1 29.5Q400.3 29.5 400.5 29.4L400.5 29.4L400.5 29.9Q400.2 30.1 399.8 30.1L399.8 30.1Q399.0 30.1 398.9 29.1L398.9 29.1L398.9 29.1Q398.7 29.5 398.3 29.8Q397.9 30.1 397.3 30.1L397.3 30.1Q396.8 30.1 396.3 29.8Q395.8 29.5 395.8 28.7L395.8 28.7Q395.8 27.8 396.5 27.5Q397.2 27.2 398.1 27.2L398.1 27.2Q398.3 27.2 398.5 27.2Q398.7 27.3 398.9 27.3L398.9 27.3L398.9 26.8Q398.9 26.3 398.7 26.0Q398.5 25.6 397.8 25.6L397.8 25.6Q397.3 25.6 396.9 25.8L396.9 25.8L396.7 26.7L396.1 26.6ZM398.9 28.2L398.9 28.2L398.9 27.8Q398.7 27.8 398.5 27.8Q398.3 27.7 398.0 27.7L398.0 27.7Q397.5 27.7 397.0 27.9Q396.6 28.1 396.6 28.6L396.6 28.6Q396.6 29.1 396.9 29.3Q397.2 29.5 397.5 29.5L397.5 29.5Q398.0 29.5 398.4 29.1Q398.9 28.8 398.9 28.2Z M409.0 25.1L409.0 25.7L408.4 25.7L407.0 30L406.4 30L404.9 26.3L404.8 26.3L403.4 30L402.8 30L401.3 25.7L400.7 25.7L400.7 25.1L403.1 25.1L403.1 25.7L402.1 25.7L403.1 28.8L403.2 28.8L404.7 25.1L405.2 25.1L406.7 28.8L406.8 28.8L407.7 25.7L406.8 25.7L406.8 25.1L409.0 25.1Z M411.8 29.4L411.8 30L409.3 30L409.3 29.4L410.2 29.4L410.2 23.1L409.3 23.1L409.3 22.4L410.9 22.4L410.9 29.4L411.8 29.4Z" fill="#15130f"/></g>
  <g transform="skewX(-7)"><path d="M31.7 78.3L31.7 78.3Q27.6 78.3 25.4 75.8Q23.3 73.3 23.3 68.6L23.3 68.6L23.3 52.3Q23.3 47.9 25.4 45.6Q27.6 43.3 31.7 43.3L31.7 43.3Q35.9 43.3 38.0 45.6Q40.2 47.9 40.2 52.3L40.2 52.3L40.2 68.6Q40.2 73.3 38.0 75.8Q35.8 78.3 31.7 78.3ZM31.8 72.0L31.8 72.0Q33.3 72.0 33.3 69.0L33.3 69.0L33.3 52.2Q33.3 49.6 31.8 49.6L31.8 49.6Q30.1 49.6 30.1 52.2L30.1 52.2L30.1 69.0Q30.1 70.6 30.5 71.3Q30.9 72.0 31.8 72.0Z M51.7 78.3L51.7 78.3Q46.7 78.3 44.7 75.8Q42.6 73.3 42.6 68.4L42.6 68.4L42.6 59.4Q42.6 55.7 43.4 53.3Q44.2 50.8 46.1 49.6Q48.1 48.4 51.6 48.4L51.6 48.4Q54.0 48.4 55.9 49.3Q57.8 50.1 59.0 51.8Q60.1 53.4 60.1 55.8L60.1 55.8L60.1 60.3L52.9 60.3L52.9 56.2Q52.9 55.2 52.6 54.5Q52.4 53.8 51.4 53.8L51.4 53.8Q49.7 53.8 49.7 56.2L49.7 56.2L49.7 70.4Q49.7 71.3 50.0 72.1Q50.4 72.8 51.3 72.8L51.3 72.8Q52.3 72.8 52.6 72.1Q53.0 71.4 53.0 70.4L53.0 70.4L53.0 65.5L60.1 65.5L60.1 70.6Q60.1 73.0 59.0 74.7Q57.9 76.5 56.0 77.4Q54.1 78.3 51.7 78.3Z M68.5 78.3L68.5 78.3Q65.7 78.3 64.7 77.1Q63.7 75.9 63.7 73.4L63.7 73.4L63.7 55.2L61.7 55.2L61.7 49.8L63.7 49.8L63.7 43.6L70.5 43.6L70.5 49.8L72.5 49.8L72.5 55.2L70.5 55.2L70.5 71.8Q70.5 72.5 70.8 72.8Q71.0 73.1 71.6 73.1L71.6 73.1Q72.1 73.1 72.5 73.0L72.5 73.0L72.5 77.8Q72.3 77.9 71.0 78.1Q69.8 78.3 68.5 78.3Z M83.2 78.3L83.2 78.3Q74.5 78.3 74.5 69.2L74.5 69.2L74.5 57.5Q74.5 53.3 76.8 50.9Q79.1 48.4 83.2 48.4L83.2 48.4Q87.4 48.4 89.7 50.9Q92 53.3 92 57.5L92 57.5L92 69.2Q92 78.3 83.2 78.3ZM83.2 72.9L83.2 72.9Q84.1 72.9 84.5 72.3Q84.9 71.7 84.9 70.7L84.9 70.7L84.9 56.4Q84.9 53.8 83.2 53.8L83.2 53.8Q81.6 53.8 81.6 56.4L81.6 56.4L81.6 70.7Q81.6 71.7 82.0 72.3Q82.4 72.9 83.2 72.9Z M103.4 78.3L103.4 78.3Q98.5 78.3 96.4 75.8Q94.3 73.3 94.3 68.4L94.3 68.4L94.3 59.4Q94.3 55.7 95.1 53.3Q95.9 50.8 97.9 49.6Q99.8 48.4 103.3 48.4L103.3 48.4Q105.7 48.4 107.6 49.3Q109.6 50.1 110.7 51.8Q111.8 53.4 111.8 55.8L111.8 55.8L111.8 60.3L104.7 60.3L104.7 56.2Q104.7 55.2 104.4 54.5Q104.1 53.8 103.1 53.8L103.1 53.8Q101.4 53.8 101.4 56.2L101.4 56.2L101.4 70.4Q101.4 71.3 101.8 72.1Q102.2 72.8 103.1 72.8L103.1 72.8Q104.0 72.8 104.3 72.1Q104.7 71.4 104.7 70.4L104.7 70.4L104.7 65.5L111.8 65.5L111.8 70.6Q111.8 73.0 110.7 74.7Q109.6 76.5 107.7 77.4Q105.8 78.3 103.4 78.3Z M121.3 78L114.2 78L114.2 48.7L121.3 48.7L121.3 52.0Q121.8 50.3 123.1 49.3Q124.4 48.4 126.4 48.4L126.4 48.4L126.4 54.2Q125.5 54.2 124.3 54.4Q123.1 54.6 122.2 54.9Q121.3 55.2 121.3 55.6L121.3 55.6L121.3 78Z M133.4 78.3L133.4 78.3Q131.0 78.3 129.7 77.2Q128.4 76.0 128.0 74.1Q127.5 72.1 127.5 69.6L127.5 69.6Q127.5 66.9 128.0 65.2Q128.5 63.5 129.8 62.4Q131.1 61.3 133.3 60.6L133.3 60.6L137.7 59.1L137.7 56.1Q137.7 53.7 136.1 53.7L136.1 53.7Q134.7 53.7 134.7 55.6L134.7 55.6L134.7 57.4L127.9 57.4Q127.9 57.2 127.9 57.0Q127.9 56.7 127.9 56.4L127.9 56.4Q127.9 52.0 130.0 50.2Q132.0 48.4 136.5 48.4L136.5 48.4Q138.9 48.4 140.7 49.2Q142.6 50.1 143.7 51.7Q144.7 53.3 144.7 55.7L144.7 55.7L144.7 78L137.8 78L137.8 74.5Q137.3 76.4 136.1 77.3Q134.9 78.3 133.4 78.3ZM136.2 72.9L136.2 72.9Q137.0 72.9 137.4 72.2Q137.7 71.4 137.7 70.6L137.7 70.6L137.7 62.4Q136.2 63.0 135.4 63.9Q134.6 64.8 134.6 66.5L134.6 66.5L134.6 70.3Q134.6 72.9 136.2 72.9Z M158.1 78L150.5 78L147.0 48.7L153.0 48.7L154.9 64.4L156.6 48.7L163.3 48.7L165.3 64.4L166.9 48.7L172.9 48.7L169.4 78L162 78L159.9 61.4L158.1 78Z M182.4 78L175.3 78L175.3 43.6L182.4 43.6L182.4 78Z" fill="#15130f"/></g>
  <line x1="24" y1="90" x2="185.8" y2="90" stroke="#e01b24" stroke-width="5"/>
  <g transform="translate(20,104)"><rect width="392" height="66" rx="3" fill="#ffffff" stroke="#15130f" stroke-width="2.5"/>
    <g><path d="M25.1 18.2L25.4 20.9L23.8 21.1L23.6 19.8L21.3 19.8L21.3 22.2L25.0 22.2L25.0 23.7L21.3 23.7L21.3 25.5L22.7 25.5L22.7 27L18.5 27L18.5 25.5L19.5 25.5L19.5 19.8L18.5 19.8L18.5 18.2L25.1 18.2Z M26.3 22.9L26.6 21.3Q27.4 21.0 27.9 20.9Q28.4 20.8 29.2 20.8L29.2 20.8Q30.2 20.8 30.9 21.3Q31.6 21.8 31.6 22.9L31.6 22.9L31.6 25.5Q31.6 26.0 32.0 26.0L32.0 26.0Q32.1 26.0 32.3 25.9L32.3 25.9L32.3 26.9Q31.8 27.1 31.2 27.1L31.2 27.1Q30.0 27.1 29.9 25.9L29.9 25.9L29.9 25.9Q29.6 26.4 29.1 26.8Q28.6 27.1 27.9 27.1L27.9 27.1Q27.2 27.1 26.6 26.7Q26.0 26.4 26.0 25.4L26.0 25.4Q26.0 24.3 26.9 23.9Q27.8 23.5 28.9 23.5L28.9 23.5Q29.4 23.5 29.9 23.6L29.9 23.6L29.9 23.4Q29.9 22.9 29.7 22.5Q29.6 22.0 28.9 22.0L28.9 22.0Q28.6 22.0 28.4 22.1Q28.1 22.1 27.9 22.2L27.9 22.2L27.7 23.1L26.3 22.9ZM29.9 24.5L29.9 24.5L29.9 24.4Q29.6 24.4 29.4 24.4Q29.2 24.4 29.0 24.4L29.0 24.4Q28.5 24.4 28.2 24.5Q27.8 24.7 27.8 25.2L27.8 25.2Q27.8 25.5 28.0 25.7Q28.1 25.9 28.5 25.9L28.5 25.9Q29.0 25.9 29.4 25.6Q29.8 25.2 29.9 24.5Z M38.4 25.1L38.4 25.1Q38.4 26.1 37.6 26.6Q36.8 27.1 35.5 27.1L35.5 27.1Q34.8 27.1 34.1 27.0Q33.5 26.9 32.9 26.5L32.9 26.5L33.1 24.8L34.5 25.0L34.5 25.7Q34.7 25.8 35.0 25.8Q35.2 25.9 35.4 25.9L35.4 25.9Q35.9 25.9 36.2 25.7Q36.6 25.5 36.6 25.2L36.6 25.2Q36.6 24.8 36.0 24.7Q35.5 24.6 34.8 24.5Q34.0 24.3 33.5 24.0Q32.9 23.6 32.9 22.7L32.9 22.7Q32.9 21.6 33.8 21.2Q34.7 20.8 35.6 20.8L35.6 20.8Q36.8 20.8 37.9 21.3L37.9 21.3L38.0 22.9L36.7 23.0L36.6 22.2Q36.1 22.0 35.6 22.0L35.6 22.0Q35.3 22.0 35.0 22.2Q34.8 22.3 34.8 22.6L34.8 22.6Q34.8 23.0 35.3 23.1Q35.9 23.3 36.6 23.4Q37.3 23.5 37.8 23.9Q38.4 24.3 38.4 25.1Z M42.9 24.7L44.2 25.1Q44.0 26.2 43.4 26.6Q42.8 27.1 41.9 27.1L41.9 27.1Q40.9 27.1 40.3 26.6Q39.6 26.1 39.6 25.2L39.6 25.2L39.6 22.2L38.8 22.2L38.8 20.9L39.6 20.9L39.6 19.1L41.4 19.1L41.4 20.9L43.6 20.9L43.6 22.2L41.4 22.2L41.4 24.9Q41.4 25.7 42.1 25.7L42.1 25.7Q42.3 25.7 42.5 25.5Q42.8 25.4 42.9 24.7L42.9 24.7Z M45.8 28.1L44.1 28.1L44.9 25.0L46.6 25.0L45.8 28.1Z  M57.0 23.8L57.0 23.8Q57.0 25.2 56.3 26.1Q55.6 27.1 54.2 27.1L54.2 27.1Q52.9 27.1 52.3 26.2L52.3 26.2L52.3 28.5L53.4 28.5L53.4 29.9L49.8 29.9L49.8 28.5L50.6 28.5L50.6 22.2L49.7 22.2L49.7 20.9L52.3 20.9L52.3 22.1Q52.6 21.5 53.1 21.2Q53.5 20.8 54.4 20.8L54.4 20.8Q55.5 20.8 56.3 21.6Q57.0 22.4 57.0 23.8ZM55.2 24.0L55.2 24.0Q55.2 23.1 54.8 22.6Q54.4 22.2 53.8 22.2L53.8 22.2Q53.1 22.2 52.7 22.7Q52.4 23.2 52.3 23.9L52.3 23.9L52.3 24.2Q52.3 24.9 52.7 25.3Q53.1 25.8 53.8 25.8L53.8 25.8Q54.4 25.8 54.8 25.3Q55.2 24.9 55.2 24.0Z M57.9 22.9L58.2 21.3Q59.0 21.0 59.5 20.9Q60.1 20.8 60.8 20.8L60.8 20.8Q61.8 20.8 62.5 21.3Q63.2 21.8 63.2 22.9L63.2 22.9L63.2 25.5Q63.2 26.0 63.6 26.0L63.6 26.0Q63.8 26.0 63.9 25.9L63.9 25.9L63.9 26.9Q63.4 27.1 62.8 27.1L62.8 27.1Q61.6 27.1 61.5 25.9L61.5 25.9L61.5 25.9Q61.2 26.4 60.7 26.8Q60.3 27.1 59.5 27.1L59.5 27.1Q58.9 27.1 58.3 26.7Q57.6 26.4 57.6 25.4L57.6 25.4Q57.6 24.3 58.5 23.9Q59.4 23.5 60.5 23.5L60.5 23.5Q61.1 23.5 61.5 23.6L61.5 23.6L61.5 23.4Q61.5 22.9 61.4 22.5Q61.2 22.0 60.5 22.0L60.5 22.0Q60.2 22.0 60.0 22.1Q59.8 22.1 59.6 22.2L59.6 22.2L59.3 23.1L57.9 22.9ZM61.5 24.5L61.5 24.5L61.5 24.4Q61.3 24.4 61.0 24.4Q60.8 24.4 60.6 24.4L60.6 24.4Q60.1 24.4 59.8 24.5Q59.4 24.7 59.4 25.2L59.4 25.2Q59.4 25.5 59.6 25.7Q59.8 25.9 60.2 25.9L60.2 25.9Q60.6 25.9 61.0 25.6Q61.4 25.2 61.5 24.5Z M68.4 20.8L68.4 20.8Q68.6 20.8 68.9 20.9Q69.2 21.0 69.6 21.2L69.6 21.2L69.8 23.3L68.5 23.4L68.3 22.4Q68.0 22.2 67.8 22.2L67.8 22.2Q67.5 22.2 67.3 22.5Q67.1 22.7 67.1 23.2L67.1 23.2L67.1 25.7L68.1 25.7L68.1 27L64.5 27L64.5 25.7L65.3 25.7L65.3 22.2L64.4 22.2L64.4 20.9L66.9 20.9L66.9 22.1Q67.1 21.5 67.4 21.2Q67.7 20.8 68.4 20.8Z M70.7 22.9L71.0 21.3Q71.8 21.0 72.3 20.9Q72.9 20.8 73.6 20.8L73.6 20.8Q74.6 20.8 75.3 21.3Q76.0 21.8 76.0 22.9L76.0 22.9L76.0 25.5Q76.0 26.0 76.4 26.0L76.4 26.0Q76.5 26.0 76.7 25.9L76.7 25.9L76.7 26.9Q76.2 27.1 75.6 27.1L75.6 27.1Q74.4 27.1 74.3 25.9L74.3 25.9L74.3 25.9Q74.0 26.4 73.5 26.8Q73.1 27.1 72.3 27.1L72.3 27.1Q71.6 27.1 71.0 26.7Q70.4 26.4 70.4 25.4L70.4 25.4Q70.4 24.3 71.3 23.9Q72.2 23.5 73.3 23.5L73.3 23.5Q73.8 23.5 74.3 23.6L74.3 23.6L74.3 23.4Q74.3 22.9 74.1 22.5Q74.0 22.0 73.3 22.0L73.3 22.0Q73.0 22.0 72.8 22.1Q72.6 22.1 72.3 22.2L72.3 22.2L72.1 23.1L70.7 22.9ZM74.3 24.5L74.3 24.5L74.3 24.4Q74.1 24.4 73.8 24.4Q73.6 24.4 73.4 24.4L73.4 24.4Q72.9 24.4 72.6 24.5Q72.2 24.7 72.2 25.2L72.2 25.2Q72.2 25.5 72.4 25.7Q72.6 25.9 72.9 25.9L72.9 25.9Q73.4 25.9 73.8 25.6Q74.2 25.2 74.3 24.5Z M80.5 25.7L80.5 27L77.1 27L77.1 25.7L78.0 25.7L78.0 19.0L77.1 19.0L77.1 17.7L79.7 17.7L79.7 25.7L80.5 25.7Z M84.4 25.7L84.4 27L81.0 27L81.0 25.7L81.8 25.7L81.8 19.0L80.9 19.0L80.9 17.7L83.5 17.7L83.5 25.7L84.4 25.7Z M89.4 24.8L90.8 25.1Q90.8 25.9 90.0 26.5Q89.3 27.1 88.0 27.1L88.0 27.1Q86.6 27.1 85.8 26.4Q84.9 25.6 84.9 24.1L84.9 24.1Q84.9 22.7 85.7 21.7Q86.5 20.8 87.9 20.8L87.9 20.8Q89.2 20.8 90.0 21.5Q90.8 22.2 90.8 23.4L90.8 23.4Q90.8 23.9 90.7 24.3L90.7 24.3L86.7 24.3Q86.8 25.8 88.1 25.8L88.1 25.8Q88.8 25.8 89.1 25.4Q89.3 25.1 89.4 24.8L89.4 24.8ZM86.7 23.3L89.0 23.3Q89.1 22.8 88.8 22.4Q88.6 22.0 87.9 22.0L87.9 22.0Q87.4 22.0 87.1 22.4Q86.8 22.7 86.7 23.3L86.7 23.3Z M94.7 25.7L94.7 27L91.4 27L91.4 25.7L92.2 25.7L92.2 19.0L91.3 19.0L91.3 17.7L93.9 17.7L93.9 25.7L94.7 25.7Z  M98.1 22.9L98.4 21.3Q99.2 21.0 99.7 20.9Q100.3 20.8 101.0 20.8L101.0 20.8Q102.0 20.8 102.7 21.3Q103.4 21.8 103.4 22.9L103.4 22.9L103.4 25.5Q103.4 26.0 103.8 26.0L103.8 26.0Q104.0 26.0 104.1 25.9L104.1 25.9L104.1 26.9Q103.6 27.1 103.0 27.1L103.0 27.1Q101.8 27.1 101.7 25.9L101.7 25.9L101.7 25.9Q101.4 26.4 101.0 26.8Q100.5 27.1 99.7 27.1L99.7 27.1Q99.1 27.1 98.5 26.7Q97.9 26.4 97.9 25.4L97.9 25.4Q97.9 24.3 98.8 23.9Q99.6 23.5 100.7 23.5L100.7 23.5Q101.3 23.5 101.7 23.6L101.7 23.6L101.7 23.4Q101.7 22.9 101.6 22.5Q101.4 22.0 100.7 22.0L100.7 22.0Q100.4 22.0 100.2 22.1Q100.0 22.1 99.8 22.2L99.8 22.2L99.5 23.1L98.1 22.9ZM101.7 24.5L101.7 24.5L101.7 24.4Q101.5 24.4 101.2 24.4Q101.0 24.4 100.8 24.4L100.8 24.4Q100.3 24.4 100.0 24.5Q99.6 24.7 99.6 25.2L99.6 25.2Q99.6 25.5 99.8 25.7Q100.0 25.9 100.4 25.9L100.4 25.9Q100.8 25.9 101.2 25.6Q101.6 25.2 101.7 24.5Z M112.2 25.7L112.2 27L108.8 27L108.8 25.7L109.6 25.7L109.6 23.6Q109.6 22.8 109.3 22.5Q109.1 22.1 108.6 22.1L108.6 22.1Q108.0 22.1 107.6 22.5Q107.3 22.9 107.3 23.5L107.3 23.5L107.3 25.7L108.1 25.7L108.1 27L104.7 27L104.7 25.7L105.5 25.7L105.5 22.2L104.6 22.2L104.6 20.9L107.3 20.9L107.3 21.8Q107.9 20.8 109.2 20.8L109.2 20.8Q110.1 20.8 110.7 21.3Q111.4 21.8 111.4 22.9L111.4 22.9L111.4 25.7L112.2 25.7Z M119.8 25.7L119.8 27L117.3 27L117.3 25.9Q117.0 26.4 116.5 26.8Q116.0 27.1 115.2 27.1L115.2 27.1Q114.0 27.1 113.3 26.3Q112.6 25.5 112.6 24.1L112.6 24.1Q112.6 22.7 113.3 21.7Q114.0 20.8 115.3 20.8L115.3 20.8Q116.1 20.8 116.5 21.1Q117.0 21.4 117.3 21.8L117.3 21.8L117.3 19.0L116.1 19.0L116.1 17.7L119.0 17.7L119.0 25.7L119.8 25.7ZM117.3 23.9L117.3 23.9L117.3 23.8Q117.3 23.0 116.9 22.6Q116.5 22.2 115.9 22.2L115.9 22.2Q115.3 22.2 114.9 22.6Q114.4 23.0 114.4 24.0L114.4 24.0Q114.4 24.8 114.8 25.3Q115.2 25.8 115.8 25.8L115.8 25.8Q116.5 25.8 116.9 25.2Q117.3 24.6 117.3 23.9Z  M127.3 24.8L128.8 25.1Q128.7 25.9 128.0 26.5Q127.3 27.1 126.0 27.1L126.0 27.1Q124.6 27.1 123.7 26.4Q122.8 25.6 122.8 24.1L122.8 24.1Q122.8 22.7 123.6 21.7Q124.4 20.8 125.9 20.8L125.9 20.8Q127.1 20.8 127.9 21.5Q128.7 22.2 128.7 23.4L128.7 23.4Q128.7 23.9 128.6 24.3L128.6 24.3L124.6 24.3Q124.8 25.8 126.1 25.8L126.1 25.8Q126.8 25.8 127.0 25.4Q127.3 25.1 127.3 24.8L127.3 24.8ZM124.7 23.3L126.9 23.3Q127.0 22.8 126.7 22.4Q126.5 22.0 125.9 22.0L125.9 22.0Q125.3 22.0 125.0 22.4Q124.7 22.7 124.7 23.3L124.7 23.3Z M129.7 22.9L130.0 21.3Q130.8 21.0 131.3 20.9Q131.8 20.8 132.6 20.8L132.6 20.8Q133.6 20.8 134.3 21.3Q135.0 21.8 135.0 22.9L135.0 22.9L135.0 25.5Q135.0 26.0 135.4 26.0L135.4 26.0Q135.5 26.0 135.7 25.9L135.7 25.9L135.7 26.9Q135.2 27.1 134.6 27.1L134.6 27.1Q133.4 27.1 133.3 25.9L133.3 25.9L133.3 25.9Q133.0 26.4 132.5 26.8Q132.0 27.1 131.3 27.1L131.3 27.1Q130.6 27.1 130.0 26.7Q129.4 26.4 129.4 25.4L129.4 25.4Q129.4 24.3 130.3 23.9Q131.2 23.5 132.3 23.5L132.3 23.5Q132.8 23.5 133.3 23.6L133.3 23.6L133.3 23.4Q133.3 22.9 133.1 22.5Q133.0 22.0 132.3 22.0L132.3 22.0Q132.0 22.0 131.8 22.1Q131.5 22.1 131.3 22.2L131.3 22.2L131.1 23.1L129.7 22.9ZM133.3 24.5L133.3 24.5L133.3 24.4Q133.0 24.4 132.8 24.4Q132.6 24.4 132.4 24.4L132.4 24.4Q131.9 24.4 131.6 24.5Q131.2 24.7 131.2 25.2L131.2 25.2Q131.2 25.5 131.4 25.7Q131.5 25.9 131.9 25.9L131.9 25.9Q132.4 25.9 132.8 25.6Q133.2 25.2 133.3 24.5Z M141.8 25.1L141.8 25.1Q141.8 26.1 141.0 26.6Q140.2 27.1 138.9 27.1L138.9 27.1Q138.2 27.1 137.5 27.0Q136.9 26.9 136.3 26.5L136.3 26.5L136.5 24.8L137.9 25.0L137.9 25.7Q138.1 25.8 138.4 25.8Q138.6 25.9 138.8 25.9L138.8 25.9Q139.3 25.9 139.6 25.7Q140.0 25.5 140.0 25.2L140.0 25.2Q140.0 24.8 139.5 24.7Q138.9 24.6 138.2 24.5Q137.4 24.3 136.9 24.0Q136.3 23.6 136.3 22.7L136.3 22.7Q136.3 21.6 137.2 21.2Q138.1 20.8 139.0 20.8L139.0 20.8Q140.2 20.8 141.3 21.3L141.3 21.3L141.4 22.9L140.1 23.0L140.0 22.2Q139.5 22.0 139.0 22.0L139.0 22.0Q138.7 22.0 138.5 22.2Q138.2 22.3 138.2 22.6L138.2 22.6Q138.2 23.0 138.8 23.1Q139.3 23.3 140.0 23.4Q140.7 23.5 141.2 23.9Q141.8 24.3 141.8 25.1Z M149.2 20.9L149.2 22.2L148.6 22.2L146.6 27L146.0 28.5L146.8 28.5L146.8 29.9L143.5 29.9L143.5 28.5L144.4 28.5L144.9 27.1L142.8 22.2L142.2 22.2L142.2 20.9L145.3 20.9L145.3 22.2L144.7 22.2L145.9 25.0L146.0 25.0L146.9 22.2L146.4 22.2L146.4 20.9L149.2 20.9Z  M156.0 24.7L157.3 25.1Q157.1 26.2 156.5 26.6Q155.9 27.1 155.0 27.1L155.0 27.1Q154.0 27.1 153.3 26.6Q152.7 26.1 152.7 25.2L152.7 25.2L152.7 22.2L151.9 22.2L151.9 20.9L152.7 20.9L152.7 19.1L154.5 19.1L154.5 20.9L156.6 20.9L156.6 22.2L154.5 22.2L154.5 24.9Q154.5 25.7 155.2 25.7L155.2 25.7Q155.3 25.7 155.6 25.5Q155.9 25.4 156.0 24.7L156.0 24.7Z M163.9 24.0L163.9 24.0Q163.9 25.4 163.0 26.3Q162.0 27.1 160.6 27.1L160.6 27.1Q159.2 27.1 158.3 26.3Q157.4 25.5 157.4 24.0L157.4 24.0Q157.4 22.7 158.2 21.7Q159.0 20.8 160.7 20.8L160.7 20.8Q162.3 20.8 163.1 21.7Q163.9 22.7 163.9 24.0ZM162.1 23.9L162.1 23.9Q162.1 23.0 161.7 22.5Q161.3 22.1 160.7 22.1L160.7 22.1Q160.0 22.1 159.6 22.6Q159.2 23.1 159.2 23.9L159.2 23.9Q159.2 24.7 159.6 25.3Q159.9 25.8 160.6 25.8L160.6 25.8Q161.3 25.8 161.7 25.3Q162.1 24.8 162.1 23.9Z  M174.4 25.7L174.4 27L171.8 27L171.8 26.1Q171.2 27.1 169.9 27.1L169.9 27.1Q169.0 27.1 168.4 26.6Q167.7 26.1 167.7 25.0L167.7 25.0L167.7 22.2L166.9 22.2L166.9 20.9L169.5 20.9L169.5 24.3Q169.5 25.1 169.7 25.5Q170.0 25.8 170.5 25.8L170.5 25.8Q171.1 25.8 171.5 25.4Q171.8 25.0 171.8 24.4L171.8 24.4L171.8 22.2L170.8 22.2L170.8 20.9L173.6 20.9L173.6 25.7L174.4 25.7Z M180.5 25.1L180.5 25.1Q180.5 26.1 179.7 26.6Q178.9 27.1 177.6 27.1L177.6 27.1Q176.9 27.1 176.3 27.0Q175.6 26.9 175.0 26.5L175.0 26.5L175.2 24.8L176.6 25.0L176.6 25.7Q176.8 25.8 177.1 25.8Q177.4 25.9 177.5 25.9L177.5 25.9Q178.0 25.9 178.4 25.7Q178.7 25.5 178.7 25.2L178.7 25.2Q178.7 24.8 178.2 24.7Q177.6 24.6 176.9 24.5Q176.2 24.3 175.6 24.0Q175.1 23.6 175.1 22.7L175.1 22.7Q175.1 21.6 175.9 21.2Q176.8 20.8 177.7 20.8L177.7 20.8Q179.0 20.8 180.0 21.3L180.0 21.3L180.2 22.9L178.8 23.0L178.7 22.2Q178.3 22.0 177.8 22.0L177.8 22.0Q177.4 22.0 177.2 22.2Q176.9 22.3 176.9 22.6L176.9 22.6Q176.9 23.0 177.5 23.1Q178.0 23.3 178.7 23.4Q179.4 23.5 180.0 23.9Q180.5 24.3 180.5 25.1Z M185.6 24.8L187.1 25.1Q187.0 25.9 186.3 26.5Q185.5 27.1 184.2 27.1L184.2 27.1Q182.9 27.1 182.0 26.4Q181.1 25.6 181.1 24.1L181.1 24.1Q181.1 22.7 181.9 21.7Q182.7 20.8 184.2 20.8L184.2 20.8Q185.4 20.8 186.2 21.5Q187.0 22.2 187.0 23.4L187.0 23.4Q187.0 23.9 186.9 24.3L186.9 24.3L182.9 24.3Q183.1 25.8 184.4 25.8L184.4 25.8Q185.1 25.8 185.3 25.4Q185.6 25.1 185.6 24.8L185.6 24.8ZM182.9 23.3L185.2 23.3Q185.3 22.8 185.0 22.4Q184.8 22.0 184.2 22.0L184.2 22.0Q183.6 22.0 183.3 22.4Q183.0 22.7 182.9 23.3L182.9 23.3Z  M200.0 20.9L200.0 22.2L199.5 22.2L197.8 27L196.5 27L194.9 23.4L194.9 23.4L193.4 27L192.2 27L190.5 22.2L190.0 22.2L190.0 20.9L193.2 20.9L193.2 22.2L192.4 22.2L193.1 24.6L193.2 24.6L194.6 20.9L195.7 20.9L197.3 24.5L197.4 24.5L197.9 22.2L197.1 22.2L197.1 20.9L200.0 20.9Z M204.9 24.8L206.4 25.1Q206.3 25.9 205.6 26.5Q204.9 27.1 203.5 27.1L203.5 27.1Q202.2 27.1 201.3 26.4Q200.4 25.6 200.4 24.1L200.4 24.1Q200.4 22.7 201.2 21.7Q202.0 20.8 203.5 20.8L203.5 20.8Q204.7 20.8 205.5 21.5Q206.3 22.2 206.3 23.4L206.3 23.4Q206.3 23.9 206.2 24.3L206.2 24.3L202.2 24.3Q202.4 25.8 203.7 25.8L203.7 25.8Q204.4 25.8 204.6 25.4Q204.9 25.1 204.9 24.8L204.9 24.8ZM202.2 23.3L204.5 23.3Q204.6 22.8 204.3 22.4Q204.1 22.0 203.5 22.0L203.5 22.0Q202.9 22.0 202.6 22.4Q202.3 22.7 202.2 23.3L202.2 23.3Z M213.8 23.8L213.8 23.8Q213.8 25.2 213.1 26.1Q212.4 27.1 211.0 27.1L211.0 27.1Q209.6 27.1 209.1 26.1L209.1 26.1Q209.0 26.3 209.0 26.5Q209.0 26.8 208.9 27L208.9 27L207.2 27Q207.3 26.5 207.3 26.1Q207.4 25.6 207.4 25.1L207.4 25.1L207.4 19.0L206.6 19.0L206.6 17.7L209.1 17.7L209.1 22.1Q209.4 21.5 209.9 21.2Q210.4 20.8 211.2 20.8L211.2 20.8Q212.3 20.8 213.1 21.6Q213.8 22.4 213.8 23.8ZM212.0 24.0L212.0 24.0Q212.0 23.1 211.6 22.6Q211.2 22.2 210.6 22.2L210.6 22.2Q209.9 22.2 209.5 22.7Q209.1 23.2 209.1 23.9L209.1 23.9L209.1 24.0Q209.1 24.8 209.5 25.3Q209.9 25.8 210.6 25.8L210.6 25.8Q211.2 25.8 211.6 25.3Q212.0 24.9 212.0 24.0Z  M221.3 24.5L222.8 24.7Q222.7 25.6 222.0 26.4Q221.4 27.1 219.9 27.1L219.9 27.1Q218.6 27.1 217.8 26.4Q216.9 25.6 216.9 24.1L216.9 24.1Q216.9 22.4 217.8 21.6Q218.8 20.8 220.1 20.8L220.1 20.8Q220.6 20.8 221.2 20.9Q221.7 21.0 222.3 21.3L222.3 21.3L222.6 23.2L221.2 23.3L221.0 22.3Q220.4 22.2 220.0 22.2L220.0 22.2Q219.5 22.2 219.1 22.6Q218.7 23.0 218.7 24.0L218.7 24.0Q218.7 25.8 220.1 25.8L220.1 25.8Q221.1 25.8 221.3 24.5L221.3 24.5Z M227.2 20.8L227.2 20.8Q227.5 20.8 227.8 20.9Q228.1 21.0 228.4 21.2L228.4 21.2L228.7 23.3L227.4 23.4L227.1 22.4Q226.9 22.2 226.7 22.2L226.7 22.2Q226.4 22.2 226.1 22.5Q225.9 22.7 225.9 23.2L225.9 23.2L225.9 25.7L227.0 25.7L227.0 27L223.4 27L223.4 25.7L224.2 25.7L224.2 22.2L223.3 22.2L223.3 20.9L225.8 20.9L225.8 22.1Q225.9 21.5 226.3 21.2Q226.6 20.8 227.2 20.8Z M229.6 22.9L229.8 21.3Q230.6 21.0 231.2 20.9Q231.7 20.8 232.4 20.8L232.4 20.8Q233.4 20.8 234.1 21.3Q234.9 21.8 234.9 22.9L234.9 22.9L234.9 25.5Q234.9 26.0 235.3 26.0L235.3 26.0Q235.4 26.0 235.5 25.9L235.5 25.9L235.6 26.9Q235.0 27.1 234.5 27.1L234.5 27.1Q233.3 27.1 233.1 25.9L233.1 25.9L233.1 25.9Q232.9 26.4 232.4 26.8Q231.9 27.1 231.2 27.1L231.2 27.1Q230.5 27.1 229.9 26.7Q229.3 26.4 229.3 25.4L229.3 25.4Q229.3 24.3 230.2 23.9Q231.1 23.5 232.1 23.5L232.1 23.5Q232.7 23.5 233.1 23.6L233.1 23.6L233.1 23.4Q233.1 22.9 233.0 22.5Q232.9 22.0 232.1 22.0L232.1 22.0Q231.9 22.0 231.6 22.1Q231.4 22.1 231.2 22.2L231.2 22.2L231.0 23.1L229.6 22.9ZM233.1 24.5L233.1 24.5L233.1 24.4Q232.9 24.4 232.7 24.4Q232.5 24.4 232.2 24.4L232.2 24.4Q231.8 24.4 231.4 24.5Q231.1 24.7 231.1 25.2L231.1 25.2Q231.1 25.5 231.2 25.7Q231.4 25.9 231.8 25.9L231.8 25.9Q232.3 25.9 232.7 25.6Q233.1 25.2 233.1 24.5Z M245.9 20.9L245.9 22.2L245.4 22.2L243.7 27L242.4 27L240.8 23.4L240.7 23.4L239.3 27L238.1 27L236.4 22.2L235.8 22.2L235.8 20.9L239.1 20.9L239.1 22.2L238.3 22.2L239.0 24.6L239.1 24.6L240.5 20.9L241.5 20.9L243.2 24.5L243.3 24.5L243.8 22.2L243.0 22.2L243.0 20.9L245.9 20.9Z M249.6 25.7L249.6 27L246.3 27L246.3 25.7L247.1 25.7L247.1 19.0L246.2 19.0L246.2 17.7L248.8 17.7L248.8 25.7L249.6 25.7Z M254.7 24.8L256.1 25.1Q256.0 25.9 255.3 26.5Q254.6 27.1 253.3 27.1L253.3 27.1Q251.9 27.1 251.0 26.4Q250.1 25.6 250.1 24.1L250.1 24.1Q250.1 22.7 250.9 21.7Q251.8 20.8 253.2 20.8L253.2 20.8Q254.5 20.8 255.3 21.5Q256.0 22.2 256.1 23.4L256.1 23.4Q256.1 23.9 256.0 24.3L256.0 24.3L252.0 24.3Q252.1 25.8 253.4 25.8L253.4 25.8Q254.1 25.8 254.4 25.4Q254.6 25.1 254.7 24.8L254.7 24.8ZM252.0 23.3L254.3 23.3Q254.3 22.8 254.1 22.4Q253.8 22.0 253.2 22.0L253.2 22.0Q252.7 22.0 252.4 22.4Q252.1 22.7 252.0 23.3L252.0 23.3Z M260.6 20.8L260.6 20.8Q260.9 20.8 261.2 20.9Q261.5 21.0 261.8 21.2L261.8 21.2L262.1 23.3L260.8 23.4L260.5 22.4Q260.3 22.2 260.1 22.2L260.1 22.2Q259.8 22.2 259.5 22.5Q259.3 22.7 259.3 23.2L259.3 23.2L259.3 25.7L260.4 25.7L260.4 27L256.8 27L256.8 25.7L257.6 25.7L257.6 22.2L256.7 22.2L256.7 20.9L259.2 20.9L259.2 22.1Q259.3 21.5 259.7 21.2Q260.0 20.8 260.6 20.8Z  M268.5 17.6L268.5 17.6Q268.9 17.6 269.4 17.7Q269.9 17.8 270.3 18.1L270.3 18.1L270.6 19.8L269.2 19.9L269.0 19.0Q268.7 18.9 268.5 18.9L268.5 18.9Q267.8 18.9 267.8 19.7L267.8 19.7L267.8 20.9L269.3 20.9L269.3 22.2L267.8 22.2L267.8 25.7L268.8 25.7L268.8 27L265.2 27L265.2 25.7L266.0 25.7L266.0 22.2L265.3 22.2L265.3 20.9L266.0 20.9L266.0 20.0Q266.0 19.0 266.7 18.3Q267.3 17.6 268.5 17.6Z M276.3 24.0L276.3 24.0Q276.3 25.4 275.3 26.3Q274.4 27.1 272.9 27.1L272.9 27.1Q271.5 27.1 270.6 26.3Q269.8 25.5 269.8 24.0L269.8 24.0Q269.8 22.7 270.6 21.7Q271.4 20.8 273.0 20.8L273.0 20.8Q274.7 20.8 275.5 21.7Q276.3 22.7 276.3 24.0ZM274.5 23.9L274.5 23.9Q274.5 23.0 274.1 22.5Q273.6 22.1 273.0 22.1L273.0 22.1Q272.3 22.1 271.9 22.6Q271.6 23.1 271.6 23.9L271.6 23.9Q271.6 24.7 271.9 25.3Q272.3 25.8 273.0 25.8L273.0 25.8Q273.7 25.8 274.1 25.3Q274.5 24.8 274.5 23.9Z M280.8 20.8L280.8 20.8Q281.0 20.8 281.4 20.9Q281.7 21.0 282.0 21.2L282.0 21.2L282.3 23.3L280.9 23.4L280.7 22.4Q280.4 22.2 280.2 22.2L280.2 22.2Q279.9 22.2 279.7 22.5Q279.5 22.7 279.5 23.2L279.5 23.2L279.5 25.7L280.6 25.7L280.6 27L276.9 27L276.9 25.7L277.8 25.7L277.8 22.2L276.9 22.2L276.9 20.9L279.4 20.9L279.4 22.1Q279.5 21.5 279.8 21.2Q280.2 20.8 280.8 20.8Z  M292.4 23.8L292.4 23.8Q292.4 25.2 291.7 26.1Q291.0 27.1 289.6 27.1L289.6 27.1Q288.4 27.1 287.8 26.2L287.8 26.2L287.8 28.5L288.9 28.5L288.9 29.9L285.2 29.9L285.2 28.5L286.0 28.5L286.0 22.2L285.2 22.2L285.2 20.9L287.8 20.9L287.8 22.1Q288.0 21.5 288.5 21.2Q289.0 20.8 289.8 20.8L289.8 20.8Q291.0 20.8 291.7 21.6Q292.4 22.4 292.4 23.8ZM290.6 24.0L290.6 24.0Q290.6 23.1 290.2 22.6Q289.8 22.2 289.2 22.2L289.2 22.2Q288.5 22.2 288.2 22.7Q287.8 23.2 287.8 23.9L287.8 23.9L287.8 24.2Q287.8 24.9 288.2 25.3Q288.6 25.8 289.2 25.8L289.2 25.8Q289.8 25.8 290.2 25.3Q290.6 24.9 290.6 24.0Z M297.5 24.8L299.0 25.1Q298.9 25.9 298.2 26.5Q297.5 27.1 296.2 27.1L296.2 27.1Q294.8 27.1 293.9 26.4Q293.0 25.6 293.0 24.1L293.0 24.1Q293.0 22.7 293.8 21.7Q294.6 20.8 296.1 20.8L296.1 20.8Q297.3 20.8 298.1 21.5Q298.9 22.2 298.9 23.4L298.9 23.4Q298.9 23.9 298.8 24.3L298.8 24.3L294.8 24.3Q295.0 25.8 296.3 25.8L296.3 25.8Q297.0 25.8 297.2 25.4Q297.5 25.1 297.5 24.8L297.5 24.8ZM294.9 23.3L297.1 23.3Q297.2 22.8 296.9 22.4Q296.7 22.0 296.1 22.0L296.1 22.0Q295.5 22.0 295.2 22.4Q294.9 22.7 294.9 23.3L294.9 23.3Z M307.1 25.7L307.1 27L303.7 27L303.7 25.7L304.6 25.7L304.6 23.6Q304.6 22.8 304.3 22.5Q304.0 22.1 303.5 22.1L303.5 22.1Q302.9 22.1 302.6 22.5Q302.2 22.9 302.2 23.5L302.2 23.5L302.2 25.7L303.0 25.7L303.0 27L299.7 27L299.7 25.7L300.5 25.7L300.5 22.2L299.6 22.2L299.6 20.9L302.2 20.9L302.2 21.8Q302.8 20.8 304.2 20.8L304.2 20.8Q305.0 20.8 305.7 21.3Q306.3 21.8 306.3 22.9L306.3 22.9L306.3 25.7L307.1 25.7Z M312.1 24.8L313.5 25.1Q313.4 25.9 312.7 26.5Q312.0 27.1 310.7 27.1L310.7 27.1Q309.3 27.1 308.4 26.4Q307.5 25.6 307.5 24.1L307.5 24.1Q307.5 22.7 308.4 21.7Q309.2 20.8 310.6 20.8L310.6 20.8Q311.9 20.8 312.7 21.5Q313.4 22.2 313.5 23.4L313.5 23.4Q313.5 23.9 313.4 24.3L313.4 24.3L309.4 24.3Q309.5 25.8 310.8 25.8L310.8 25.8Q311.5 25.8 311.8 25.4Q312.0 25.1 312.1 24.8L312.1 24.8ZM309.4 23.3L311.7 23.3Q311.7 22.8 311.5 22.4Q311.2 22.0 310.6 22.0L310.6 22.0Q310.1 22.0 309.8 22.4Q309.5 22.7 309.4 23.3L309.4 23.3Z M318.0 24.7L319.3 25.1Q319.1 26.2 318.5 26.6Q317.9 27.1 317.0 27.1L317.0 27.1Q316.0 27.1 315.4 26.6Q314.7 26.1 314.7 25.2L314.7 25.2L314.7 22.2L313.9 22.2L313.9 20.9L314.7 20.9L314.7 19.1L316.5 19.1L316.5 20.9L318.7 20.9L318.7 22.2L316.5 22.2L316.5 24.9Q316.5 25.7 317.2 25.7L317.2 25.7Q317.4 25.7 317.6 25.5Q317.9 25.4 318.0 24.7L318.0 24.7Z M323.4 20.8L323.4 20.8Q323.7 20.8 324.0 20.9Q324.3 21.0 324.6 21.2L324.6 21.2L324.9 23.3L323.5 23.4L323.3 22.4Q323.0 22.2 322.8 22.2L322.8 22.2Q322.5 22.2 322.3 22.5Q322.1 22.7 322.1 23.2L322.1 23.2L322.1 25.7L323.2 25.7L323.2 27L319.5 27L319.5 25.7L320.4 25.7L320.4 22.2L319.5 22.2L319.5 20.9L322.0 20.9L322.0 22.1Q322.1 21.5 322.4 21.2Q322.8 20.8 323.4 20.8Z M325.8 22.9L326.0 21.3Q326.8 21.0 327.4 20.9Q327.9 20.8 328.6 20.8L328.6 20.8Q329.6 20.8 330.3 21.3Q331.1 21.8 331.1 22.9L331.1 22.9L331.1 25.5Q331.1 26.0 331.5 26.0L331.5 26.0Q331.6 26.0 331.7 25.9L331.7 25.9L331.7 26.9Q331.2 27.1 330.6 27.1L330.6 27.1Q329.4 27.1 329.3 25.9L329.3 25.9L329.3 25.9Q329.1 26.4 328.6 26.8Q328.1 27.1 327.4 27.1L327.4 27.1Q326.7 27.1 326.1 26.7Q325.5 26.4 325.5 25.4L325.5 25.4Q325.5 24.3 326.4 23.9Q327.3 23.5 328.3 23.5L328.3 23.5Q328.9 23.5 329.3 23.6L329.3 23.6L329.3 23.4Q329.3 22.9 329.2 22.5Q329.1 22.0 328.3 22.0L328.3 22.0Q328.0 22.0 327.8 22.1Q327.6 22.1 327.4 22.2L327.4 22.2L327.1 23.1L325.8 22.9ZM329.3 24.5L329.3 24.5L329.3 24.4Q329.1 24.4 328.9 24.4Q328.6 24.4 328.4 24.4L328.4 24.4Q328.0 24.4 327.6 24.5Q327.3 24.7 327.3 25.2L327.3 25.2Q327.3 25.5 327.4 25.7Q327.6 25.9 328.0 25.9L328.0 25.9Q328.4 25.9 328.8 25.6Q329.2 25.2 329.3 24.5Z M336.2 24.7L337.4 25.1Q337.3 26.2 336.7 26.6Q336.1 27.1 335.2 27.1L335.2 27.1Q334.1 27.1 333.5 26.6Q332.9 26.1 332.9 25.2L332.9 25.2L332.9 22.2L332.0 22.2L332.0 20.9L332.9 20.9L332.9 19.1L334.6 19.1L334.6 20.9L336.8 20.9L336.8 22.2L334.6 22.2L334.6 24.9Q334.6 25.7 335.4 25.7L335.4 25.7Q335.5 25.7 335.8 25.5Q336.1 25.4 336.2 24.7L336.2 24.7Z M340.2 19.8L338.5 19.8L338.5 18.0L340.2 18.0L340.2 19.8ZM341.1 25.7L341.1 27L337.7 27L337.7 25.7L338.6 25.7L338.6 22.2L337.7 22.2L337.7 20.9L340.3 20.9L340.3 25.7L341.1 25.7Z M348.1 24.0L348.1 24.0Q348.1 25.4 347.2 26.3Q346.3 27.1 344.8 27.1L344.8 27.1Q343.4 27.1 342.5 26.3Q341.6 25.5 341.6 24.0L341.6 24.0Q341.6 22.7 342.4 21.7Q343.2 20.8 344.9 20.8L344.9 20.8Q346.5 20.8 347.3 21.7Q348.1 22.7 348.1 24.0ZM346.3 23.9L346.3 23.9Q346.3 23.0 345.9 22.5Q345.5 22.1 344.9 22.1L344.9 22.1Q344.2 22.1 343.8 22.6Q343.4 23.1 343.4 23.9L343.4 23.9Q343.4 24.7 343.8 25.3Q344.1 25.8 344.8 25.8L344.8 25.8Q345.5 25.8 345.9 25.3Q346.3 24.8 346.3 23.9Z M356.3 25.7L356.3 27L352.9 27L352.9 25.7L353.7 25.7L353.7 23.6Q353.7 22.8 353.4 22.5Q353.2 22.1 352.7 22.1L352.7 22.1Q352.0 22.1 351.7 22.5Q351.4 22.9 351.4 23.5L351.4 23.5L351.4 25.7L352.2 25.7L352.2 27L348.8 27L348.8 25.7L349.6 25.7L349.6 22.2L348.7 22.2L348.7 20.9L351.4 20.9L351.4 21.8Q352.0 20.8 353.3 20.8L353.3 20.8Q354.2 20.8 354.8 21.3Q355.4 21.8 355.4 22.9L355.4 22.9L355.4 25.7L356.3 25.7Z" fill="#15130f"/></g><g><path d="M22.2 46.7L23.5 47.1Q23.3 48.2 22.8 48.6Q22.2 49.1 21.2 49.1L21.2 49.1Q20.2 49.1 19.6 48.6Q18.9 48.1 18.9 47.2L18.9 47.2L18.9 44.2L18.1 44.2L18.1 42.9L18.9 42.9L18.9 41.1L20.7 41.1L20.7 42.9L22.9 42.9L22.9 44.2L20.7 44.2L20.7 46.9Q20.7 47.7 21.4 47.7L21.4 47.7Q21.6 47.7 21.9 47.5Q22.1 47.4 22.2 46.7L22.2 46.7Z M28.2 46.8L29.6 47.1Q29.6 47.9 28.8 48.5Q28.1 49.1 26.8 49.1L26.8 49.1Q25.4 49.1 24.5 48.4Q23.7 47.6 23.7 46.1L23.7 46.1Q23.7 44.7 24.5 43.7Q25.3 42.8 26.7 42.8L26.7 42.8Q28.0 42.8 28.8 43.5Q29.6 44.2 29.6 45.4L29.6 45.4Q29.6 45.9 29.5 46.3L29.5 46.3L25.5 46.3Q25.6 47.8 26.9 47.8L26.9 47.8Q27.6 47.8 27.9 47.4Q28.1 47.1 28.2 46.8L28.2 46.8ZM25.5 45.3L27.8 45.3Q27.8 44.8 27.6 44.4Q27.3 44.0 26.7 44.0L26.7 44.0Q26.2 44.0 25.9 44.4Q25.6 44.7 25.5 45.3L25.5 45.3Z M35.8 47.1L35.8 47.1Q35.8 48.1 35.0 48.6Q34.2 49.1 32.9 49.1L32.9 49.1Q32.2 49.1 31.5 49.0Q30.9 48.9 30.3 48.5L30.3 48.5L30.5 46.8L31.9 47.0L31.9 47.7Q32.1 47.8 32.4 47.8Q32.6 47.9 32.8 47.9L32.8 47.9Q33.3 47.9 33.6 47.7Q34.0 47.5 34.0 47.2L34.0 47.2Q34.0 46.8 33.5 46.7Q32.9 46.6 32.2 46.5Q31.4 46.3 30.9 46.0Q30.3 45.6 30.3 44.7L30.3 44.7Q30.3 43.6 31.2 43.2Q32.1 42.8 33.0 42.8L33.0 42.8Q34.2 42.8 35.3 43.3L35.3 43.3L35.4 44.9L34.1 45.0L34.0 44.2Q33.5 44.0 33.0 44.0L33.0 44.0Q32.7 44.0 32.5 44.2Q32.2 44.3 32.2 44.6L32.2 44.6Q32.2 45.0 32.7 45.1Q33.3 45.3 34.0 45.4Q34.7 45.5 35.2 45.9Q35.8 46.3 35.8 47.1Z M40.3 46.7L41.6 47.1Q41.4 48.2 40.8 48.6Q40.2 49.1 39.3 49.1L39.3 49.1Q38.3 49.1 37.7 48.6Q37.0 48.1 37.0 47.2L37.0 47.2L37.0 44.2L36.2 44.2L36.2 42.9L37.0 42.9L37.0 41.1L38.8 41.1L38.8 42.9L41.0 42.9L41.0 44.2L38.8 44.2L38.8 46.9Q38.8 47.7 39.5 47.7L39.5 47.7Q39.7 47.7 39.9 47.5Q40.2 47.4 40.3 46.7L40.3 46.7Z M44.4 41.8L42.6 41.8L42.6 40.0L44.4 40.0L44.4 41.8ZM45.3 47.7L45.3 49L41.9 49L41.9 47.7L42.7 47.7L42.7 44.2L41.8 44.2L41.8 42.9L44.4 42.9L44.4 47.7L45.3 47.7Z M53.3 47.7L53.3 49L50.0 49L50.0 47.7L50.8 47.7L50.8 45.6Q50.8 44.8 50.5 44.5Q50.3 44.1 49.8 44.1L49.8 44.1Q49.1 44.1 48.8 44.5Q48.5 44.9 48.4 45.5L48.4 45.5L48.4 47.7L49.3 47.7L49.3 49L45.9 49L45.9 47.7L46.7 47.7L46.7 44.2L45.8 44.2L45.8 42.9L48.4 42.9L48.4 43.8Q49.0 42.8 50.4 42.8L50.4 42.8Q51.3 42.8 51.9 43.3Q52.5 43.8 52.5 44.9L52.5 44.9L52.5 47.7L53.3 47.7Z M61.0 42.9L61.0 44.2L60.2 44.2L60.2 48.7Q60.2 50.1 59.4 51.1Q58.5 52.0 56.8 52.0L56.8 52.0Q55.9 52.0 55.0 51.6Q54.2 51.2 53.8 50.2L53.8 50.2L55.1 49.4Q55.7 50.6 56.8 50.6L56.8 50.6Q57.5 50.6 58.0 50.1Q58.4 49.6 58.4 48.7L58.4 48.7L58.4 47.9Q58.2 48.4 57.7 48.7Q57.3 49 56.4 49L56.4 49Q55.4 49 54.6 48.3Q53.8 47.5 53.8 46.1L53.8 46.1Q53.8 44.7 54.5 43.7Q55.2 42.8 56.5 42.8L56.5 42.8Q57.2 42.8 57.7 43.1Q58.2 43.4 58.4 43.9L58.4 43.9L58.4 42.9L61.0 42.9ZM58.4 45.9L58.4 45.9L58.4 45.8Q58.4 45.0 58.1 44.6Q57.7 44.2 57.1 44.2L57.1 44.2Q56.5 44.2 56.1 44.6Q55.7 45.0 55.7 46.0L55.7 46.0Q55.7 46.8 56.1 47.2Q56.4 47.6 57.0 47.6L57.0 47.6Q57.7 47.6 58.1 47.1Q58.4 46.6 58.4 45.9Z  M64.3 44.9L64.6 43.3Q65.4 43.0 65.9 42.9Q66.5 42.8 67.2 42.8L67.2 42.8Q68.2 42.8 68.9 43.3Q69.6 43.8 69.6 44.9L69.6 44.9L69.6 47.5Q69.6 48.0 70.1 48.0L70.1 48.0Q70.2 48.0 70.3 47.9L70.3 47.9L70.3 48.9Q69.8 49.1 69.2 49.1L69.2 49.1Q68.0 49.1 67.9 47.9L67.9 47.9L67.9 47.9Q67.6 48.4 67.2 48.8Q66.7 49.1 65.9 49.1L65.9 49.1Q65.3 49.1 64.7 48.7Q64.1 48.4 64.1 47.4L64.1 47.4Q64.1 46.3 65.0 45.9Q65.9 45.5 66.9 45.5L66.9 45.5Q67.5 45.5 67.9 45.6L67.9 45.6L67.9 45.4Q67.9 44.9 67.8 44.5Q67.6 44.0 66.9 44.0L66.9 44.0Q66.6 44.0 66.4 44.1Q66.2 44.1 66.0 44.2L66.0 44.2L65.7 45.1L64.3 44.9ZM67.9 46.5L67.9 46.5L67.9 46.4Q67.7 46.4 67.5 46.4Q67.2 46.4 67.0 46.4L67.0 46.4Q66.6 46.4 66.2 46.5Q65.9 46.7 65.9 47.2L65.9 47.2Q65.9 47.5 66.0 47.7Q66.2 47.9 66.6 47.9L66.6 47.9Q67.0 47.9 67.4 47.6Q67.8 47.2 67.9 46.5Z M78.4 47.7L78.4 49L75.0 49L75.0 47.7L75.8 47.7L75.8 45.6Q75.8 44.8 75.6 44.5Q75.3 44.1 74.8 44.1L74.8 44.1Q74.2 44.1 73.8 44.5Q73.5 44.9 73.5 45.5L73.5 45.5L73.5 47.7L74.3 47.7L74.3 49L70.9 49L70.9 47.7L71.7 47.7L71.7 44.2L70.9 44.2L70.9 42.9L73.5 42.9L73.5 43.8Q74.1 42.8 75.4 42.8L75.4 42.8Q76.3 42.8 76.9 43.3Q77.6 43.8 77.6 44.9L77.6 44.9L77.6 47.7L78.4 47.7Z M86.0 47.7L86.0 49L83.5 49L83.5 47.9Q83.2 48.4 82.7 48.8Q82.2 49.1 81.4 49.1L81.4 49.1Q80.2 49.1 79.5 48.3Q78.8 47.5 78.8 46.1L78.8 46.1Q78.8 44.7 79.5 43.7Q80.2 42.8 81.5 42.8L81.5 42.8Q82.3 42.8 82.8 43.1Q83.2 43.4 83.5 43.8L83.5 43.8L83.5 41.0L82.3 41.0L82.3 39.7L85.2 39.7L85.2 47.7L86.0 47.7ZM83.5 45.9L83.5 45.9L83.5 45.8Q83.5 45.0 83.1 44.6Q82.7 44.2 82.1 44.2L82.1 44.2Q81.5 44.2 81.1 44.6Q80.6 45.0 80.6 46.0L80.6 46.0Q80.6 46.8 81.0 47.3Q81.4 47.8 82.0 47.8L82.0 47.8Q82.7 47.8 83.1 47.2Q83.5 46.6 83.5 45.9Z  M95.9 45.8L95.9 45.8Q95.9 47.2 95.2 48.1Q94.5 49.1 93.1 49.1L93.1 49.1Q91.7 49.1 91.2 48.1L91.2 48.1Q91.1 48.3 91.1 48.5Q91.1 48.8 91.0 49L91.0 49L89.3 49Q89.4 48.5 89.4 48.1Q89.5 47.6 89.5 47.1L89.5 47.1L89.5 41.0L88.7 41.0L88.7 39.7L91.3 39.7L91.3 44.1Q91.5 43.5 92.0 43.2Q92.5 42.8 93.3 42.8L93.3 42.8Q94.5 42.8 95.2 43.6Q95.9 44.4 95.9 45.8ZM94.1 46.0L94.1 46.0Q94.1 45.1 93.7 44.6Q93.3 44.2 92.7 44.2L92.7 44.2Q92.0 44.2 91.6 44.7Q91.3 45.2 91.3 45.9L91.3 45.9L91.3 46.0Q91.3 46.8 91.6 47.3Q92.0 47.8 92.7 47.8L92.7 47.8Q93.3 47.8 93.7 47.3Q94.1 46.9 94.1 46.0Z M103.9 47.7L103.9 49L101.3 49L101.3 48.1Q100.7 49.1 99.3 49.1L99.3 49.1Q98.5 49.1 97.8 48.6Q97.2 48.1 97.2 47.0L97.2 47.0L97.2 44.2L96.4 44.2L96.4 42.9L98.9 42.9L98.9 46.3Q98.9 47.1 99.2 47.5Q99.5 47.8 100.0 47.8L100.0 47.8Q100.6 47.8 100.9 47.4Q101.3 47.0 101.3 46.4L101.3 46.4L101.3 44.2L100.3 44.2L100.3 42.9L103.0 42.9L103.0 47.7L103.9 47.7Z M111.6 42.9L111.6 44.2L110.8 44.2L110.8 48.7Q110.8 50.1 109.9 51.1Q109.1 52.0 107.4 52.0L107.4 52.0Q106.5 52.0 105.6 51.6Q104.7 51.2 104.3 50.2L104.3 50.2L105.7 49.4Q106.3 50.6 107.4 50.6L107.4 50.6Q108.1 50.6 108.6 50.1Q109.0 49.6 109.0 48.7L109.0 48.7L109.0 47.9Q108.8 48.4 108.3 48.7Q107.8 49 107.0 49L107.0 49Q106.0 49 105.2 48.3Q104.4 47.5 104.4 46.1L104.4 46.1Q104.4 44.7 105.1 43.7Q105.8 42.8 107.1 42.8L107.1 42.8Q107.8 42.8 108.3 43.1Q108.8 43.4 109.0 43.9L109.0 43.9L109.0 42.9L111.6 42.9ZM109.0 45.9L109.0 45.9L109.0 45.8Q109.0 45.0 108.6 44.6Q108.3 44.2 107.7 44.2L107.7 44.2Q107.1 44.2 106.7 44.6Q106.3 45.0 106.3 46.0L106.3 46.0Q106.3 46.8 106.7 47.2Q107.0 47.6 107.6 47.6L107.6 47.6Q108.3 47.6 108.7 47.1Q109.0 46.6 109.0 45.9Z  M121.4 45.8L121.4 45.8Q121.4 47.2 120.7 48.1Q120.0 49.1 118.6 49.1L118.6 49.1Q117.3 49.1 116.7 48.1L116.7 48.1Q116.7 48.3 116.6 48.5Q116.6 48.8 116.5 49L116.5 49L114.8 49Q114.9 48.5 115.0 48.1Q115.0 47.6 115.0 47.1L115.0 47.1L115.0 41.0L114.2 41.0L114.2 39.7L116.8 39.7L116.8 44.1Q117.0 43.5 117.5 43.2Q118.0 42.8 118.8 42.8L118.8 42.8Q120.0 42.8 120.7 43.6Q121.4 44.4 121.4 45.8ZM119.6 46.0L119.6 46.0Q119.6 45.1 119.3 44.6Q118.9 44.2 118.3 44.2L118.3 44.2Q117.5 44.2 117.2 44.7Q116.8 45.2 116.8 45.9L116.8 45.9L116.8 46.0Q116.8 46.8 117.2 47.3Q117.5 47.8 118.2 47.8L118.2 47.8Q118.8 47.8 119.2 47.3Q119.6 46.9 119.6 46.0Z M128.5 46.0L128.5 46.0Q128.5 47.4 127.6 48.3Q126.6 49.1 125.2 49.1L125.2 49.1Q123.8 49.1 122.9 48.3Q122.0 47.5 122.0 46.0L122.0 46.0Q122.0 44.7 122.8 43.7Q123.6 42.8 125.3 42.8L125.3 42.8Q126.9 42.8 127.7 43.7Q128.5 44.7 128.5 46.0ZM126.7 45.9L126.7 45.9Q126.7 45.0 126.3 44.5Q125.9 44.1 125.2 44.1L125.2 44.1Q124.6 44.1 124.2 44.6Q123.8 45.1 123.8 45.9L123.8 45.9Q123.8 46.7 124.1 47.3Q124.5 47.8 125.2 47.8L125.2 47.8Q125.9 47.8 126.3 47.3Q126.7 46.8 126.7 45.9Z M136.5 47.7L136.5 49L133.9 49L133.9 48.1Q133.3 49.1 131.9 49.1L131.9 49.1Q131.0 49.1 130.4 48.6Q129.8 48.1 129.8 47.0L129.8 47.0L129.8 44.2L129.0 44.2L129.0 42.9L131.5 42.9L131.5 46.3Q131.5 47.1 131.8 47.5Q132.0 47.8 132.6 47.8L132.6 47.8Q133.2 47.8 133.5 47.4Q133.9 47.0 133.9 46.4L133.9 46.4L133.9 44.2L132.9 44.2L132.9 42.9L135.6 42.9L135.6 47.7L136.5 47.7Z M144.5 47.7L144.5 49L141.2 49L141.2 47.7L142.0 47.7L142.0 45.6Q142.0 44.8 141.7 44.5Q141.4 44.1 140.9 44.1L140.9 44.1Q140.3 44.1 140.0 44.5Q139.6 44.9 139.6 45.5L139.6 45.5L139.6 47.7L140.4 47.7L140.4 49L137.1 49L137.1 47.7L137.9 47.7L137.9 44.2L137.0 44.2L137.0 42.9L139.6 42.9L139.6 43.8Q140.2 42.8 141.6 42.8L141.6 42.8Q142.4 42.8 143.1 43.3Q143.7 43.8 143.7 44.9L143.7 44.9L143.7 47.7L144.5 47.7Z M148.9 46.7L150.2 47.1Q150.0 48.2 149.4 48.6Q148.8 49.1 147.9 49.1L147.9 49.1Q146.9 49.1 146.3 48.6Q145.6 48.1 145.6 47.2L145.6 47.2L145.6 44.2L144.8 44.2L144.8 42.9L145.6 42.9L145.6 41.1L147.4 41.1L147.4 42.9L149.6 42.9L149.6 44.2L147.4 44.2L147.4 46.9Q147.4 47.7 148.1 47.7L148.1 47.7Q148.3 47.7 148.5 47.5Q148.8 47.4 148.9 46.7L148.9 46.7Z M157.1 42.9L157.1 44.2L156.5 44.2L154.6 49L154.0 50.5L154.8 50.5L154.8 51.9L151.4 51.9L151.4 50.5L152.4 50.5L152.9 49.1L150.7 44.2L150.1 44.2L150.1 42.9L153.2 42.9L153.2 44.2L152.6 44.2L153.9 47.0L153.9 47.0L154.9 44.2L154.3 44.2L154.3 42.9L157.1 42.9Z" fill="#15130f"/></g>
  </g>
  <g transform="translate(0,198)"><circle cx="28" cy="0" r="4" fill="#3572A5"/><g><path d="M43.5-1.4L43.5-1.4Q43.5-0.2 42.8 0.5Q42.0 1.1 40.9 1.1L40.9 1.1L39.4 1.1L39.4 3.2L40.7 3.2L40.7 4L37.5 4L37.5 3.2L38.5 3.2L38.5-3.0L37.5-3.0L37.5-3.8L40.8-3.8Q42.3-3.8 42.9-3.1Q43.5-2.4 43.5-1.4ZM42.6-1.4L42.6-1.4Q42.6-2.1 42.1-2.6Q41.7-3.0 40.7-3.0L40.7-3.0L39.4-3.0L39.4 0.3L40.8 0.3Q42.6 0.3 42.6-1.4Z M49.9-1.3L49.9-0.7L49.3-0.7L47.4 4L46.7 5.9L47.6 5.9L47.6 6.6L44.9 6.6L44.9 5.9L45.9 5.9L46.6 4.0L44.6-0.7L44.0-0.7L44.0-1.3L46.5-1.3L46.5-0.7L45.5-0.7L47.0 2.9L47.1 2.9L48.4-0.7L47.6-0.7L47.6-1.3L49.9-1.3Z M53.8 2.4L54.4 2.6Q54.2 4.1 52.7 4.1L52.7 4.1Q51.9 4.1 51.5 3.7Q51.1 3.2 51.1 2.4L51.1 2.4L51.1-0.7L50.2-0.7L50.2-1.3L51.1-1.3L51.1-3.1L51.9-3.1L51.9-1.3L54.0-1.3L54.0-0.7L51.9-0.7L51.9 2.3Q51.9 2.8 52.1 3.1Q52.3 3.4 52.8 3.4L52.8 3.4Q53.1 3.4 53.4 3.2Q53.7 3.0 53.8 2.4L53.8 2.4Z M61.1 3.3L61.1 4L58.4 4L58.4 3.3L59.3 3.3L59.3 0.8Q59.3-0.0 59.0-0.4Q58.6-0.7 58.0-0.7L58.0-0.7Q57.4-0.7 56.9-0.3Q56.5 0.2 56.5 0.8L56.5 0.8L56.5 3.3L57.4 3.3L57.4 4L54.7 4L54.7 3.3L55.6 3.3L55.6-3.6L54.7-3.6L54.7-4.3L56.5-4.3L56.5-0.4Q57.0-1.4 58.3-1.4L58.3-1.4Q59.1-1.4 59.6-1.0Q60.2-0.5 60.2 0.6L60.2 0.6L60.2 3.3L61.1 3.3Z M66.9 1.3L66.9 1.3Q66.9 2.5 66.2 3.3Q65.5 4.1 64.2 4.1L64.2 4.1Q63.0 4.1 62.3 3.4Q61.6 2.6 61.6 1.4L61.6 1.4Q61.6 0.2 62.3-0.6Q63.0-1.5 64.3-1.5L64.3-1.5Q65.6-1.5 66.2-0.6Q66.9 0.2 66.9 1.3ZM66.0 1.3L66.0 1.3Q66.0 0.4 65.6-0.2Q65.1-0.7 64.3-0.7L64.3-0.7Q63.4-0.7 63.0-0.2Q62.5 0.4 62.5 1.3L62.5 1.3Q62.5 2.2 63.0 2.8Q63.4 3.4 64.3 3.4L64.3 3.4Q65.1 3.4 65.6 2.8Q66.0 2.2 66.0 1.3Z M74.1 3.3L74.1 4L71.4 4L71.4 3.3L72.3 3.3L72.3 0.8Q72.3-0.0 72.0-0.4Q71.6-0.7 71.1-0.7L71.1-0.7Q70.4-0.7 69.9-0.3Q69.5 0.2 69.5 0.8L69.5 0.8L69.5 3.3L70.4 3.3L70.4 4L67.7 4L67.7 3.3L68.6 3.3L68.6-0.7L67.7-0.7L67.7-1.3L69.5-1.3L69.5-0.4Q70.1-1.4 71.4-1.4L71.4-1.4Q72.1-1.4 72.7-1.0Q73.2-0.5 73.2 0.6L73.2 0.6L73.2 3.3L74.1 3.3Z" fill="#15130f"/></g></g>
  <rect x="2.5" y="2.5" width="427" height="219" fill="none" stroke="#15130f" stroke-width="5"/></g></svg>